<svg width="760" height="114" viewBox="0 0 760 114" fill="none" xmlns="http://www.w3.org/2000/svg">
<rect width="760" height="114" rx="5" fill="#29BFB3"/>
<mask id="mask0" mask-type="alpha" maskUnits="userSpaceOnUse" x="0" y="0" width="760" height="114">
<rect width="760" height="114" rx="5" fill="#29BFB3"/>
</mask>
<g mask="url(#mask0)">
<rect x="626.062" y="29" width="138" height="201" rx="13" transform="rotate(23.7842 626.062 29)" fill="url(#paint0_linear)"/>
<rect x="555.828" y="80.9397" width="138" height="201" rx="13" transform="rotate(-155.755 555.828 80.9397)" fill="url(#paint1_linear)"/>
<rect x="20.832" y="47" width="138" height="201" rx="13" transform="rotate(17.3178 20.832 47)" fill="url(#paint2_linear)"/>
<rect x="213.832" y="37" width="138" height="201" rx="13" transform="rotate(17.3178 213.832 37)" fill="url(#paint3_linear)"/>
</g>
<defs>
<linearGradient id="paint0_linear" x1="695.062" y1="29" x2="695.062" y2="230" gradientUnits="userSpaceOnUse">
<stop stop-color="#29BFB3"/>
<stop offset="1" stop-color="#43D7CB"/>
</linearGradient>
<linearGradient id="paint1_linear" x1="624.828" y1="80.9397" x2="624.828" y2="281.94" gradientUnits="userSpaceOnUse">
<stop stop-color="#29BFB3"/>
<stop offset="1" stop-color="#43D7CB"/>
</linearGradient>
<linearGradient id="paint2_linear" x1="89.832" y1="47" x2="89.832" y2="248" gradientUnits="userSpaceOnUse">
<stop stop-color="#29BFB3"/>
<stop offset="1" stop-color="#43D7CB"/>
</linearGradient>
<linearGradient id="paint3_linear" x1="282.832" y1="37" x2="282.832" y2="238" gradientUnits="userSpaceOnUse">
<stop stop-color="#29BFB3"/>
<stop offset="1" stop-color="#43D7CB"/>
</linearGradient>
</defs>
</svg>
