<svg width="220" height="49" viewBox="0 0 220 49" fill="none" xmlns="http://www.w3.org/2000/svg">
<path d="M23.7264 22.5314L15.9296 14.7346C14.7552 13.5602 14.7552 11.6562 15.9296 10.4818L23.7264 2.68506L31.5231 10.4818C32.6975 11.6562 32.6975 13.5602 31.5231 14.7346L23.7264 22.5314Z" fill="#29A399"/>
<path d="M20.5177 26.1988L12.7209 33.9956C11.5466 35.1699 9.64252 35.17 8.46815 33.9956L0.671387 26.1988L8.46815 18.402C9.64252 17.2277 11.5466 17.2277 12.7209 18.402L20.5177 26.1988Z" fill="#29A399"/>
<path d="M23.6256 49.0001L15.8289 41.2034C14.6545 40.029 14.6545 38.125 15.8289 36.9506L23.6256 29.1538L31.4224 36.9506C32.5968 38.125 32.5968 40.029 31.4224 41.2034L23.6256 49.0001Z" fill="#29A399"/>
<path d="M46.9865 26.2995L39.1897 34.0963C38.0153 35.2707 36.1113 35.2707 34.9369 34.0963L27.1402 26.2995L34.9369 18.5027C36.1113 17.3284 38.0153 17.3284 39.1897 18.5027L46.9865 26.2995Z" fill="#29A399"/>
<path d="M23.055 19.8463L15.2582 12.0495C14.0838 10.8752 14.0838 8.97114 15.2582 7.79677L23.055 0L30.8517 7.79677C32.0261 8.97114 32.0261 10.8752 30.8517 12.0495L23.055 19.8463Z" fill="#29BFB3"/>
<path d="M19.8463 23.5138L12.0495 31.3105C10.8752 32.4849 8.97113 32.4849 7.79676 31.3105L0 23.5138L7.79676 15.717C8.97113 14.5426 10.8752 14.5426 12.0495 15.717L19.8463 23.5138Z" fill="#29BFB3"/>
<path d="M22.9542 46.3151L15.1575 38.5183C13.9831 37.3439 13.9831 35.4399 15.1575 34.2655L22.9542 26.4688L30.751 34.2655C31.9254 35.4399 31.9254 37.3439 30.751 38.5183L22.9542 46.3151Z" fill="#29BFB3"/>
<path d="M46.3151 23.6145L38.5183 31.4112C37.3439 32.5856 35.4399 32.5856 34.2655 31.4112L26.4688 23.6145L34.2655 15.8177C35.4399 14.6433 37.3439 14.6433 38.5183 15.8177L46.3151 23.6145Z" fill="#29BFB3"/>
<path d="M64.8581 17.6438V22.8841H70.695C71.7376 22.8841 72.5814 22.6906 73.2264 22.3036C73.8821 21.9059 74.21 21.2072 74.21 20.2075C74.21 19.1004 73.78 18.3694 72.92 18.0147C72.1783 17.7674 71.2324 17.6438 70.0822 17.6438H64.8581ZM64.8581 26.8183V33.155H70.695C71.7376 33.155 72.5492 33.0153 73.1297 32.7358C74.1831 32.2198 74.7098 31.2309 74.7098 29.769C74.7098 28.5328 74.1992 27.6836 73.178 27.2214C72.6083 26.9634 71.8075 26.8291 70.7756 26.8183H64.8581ZM71.6624 13.5161C74.5754 13.5591 76.6393 14.4029 77.854 16.0476C78.5849 17.058 78.9504 18.2673 78.9504 19.6754C78.9504 21.1266 78.5849 22.2929 77.854 23.1743C77.4455 23.6688 76.8435 24.1203 76.0481 24.5287C77.2628 24.9695 78.1764 25.6682 78.7891 26.6248C79.4126 27.5815 79.7243 28.7424 79.7243 30.1076C79.7243 31.5158 79.3696 32.7788 78.6602 33.8967C78.2087 34.6384 77.6444 35.2619 76.9671 35.7671C76.2039 36.3475 75.301 36.7453 74.2583 36.9603C73.2264 37.1752 72.1031 37.2827 70.8884 37.2827H60.1177V13.5161H71.6624Z" fill="#0C2321"/>
<path d="M83.2639 19.7077H87.9237V37.2827H83.2639V19.7077Z" fill="#0C2321"/>
<path d="M90.2539 23.1421V19.8689H92.7047V14.9673H97.2517V19.8689H100.106V23.1421H97.2517V32.4294C97.2517 33.1496 97.343 33.6011 97.5258 33.7838C97.7085 33.9558 98.2675 34.0418 99.2026 34.0418C99.3424 34.0418 99.4875 34.0418 99.638 34.0418C99.7992 34.0311 99.9551 34.0203 100.106 34.0096V37.444L97.9289 37.5246C95.7575 37.5998 94.2741 37.2236 93.4787 36.3959C92.9627 35.8692 92.7047 35.0576 92.7047 33.9612V23.1421H90.2539Z" fill="#0C2321"/>
<path d="M107.918 17.6438V22.8841H113.755C114.797 22.8841 115.641 22.6906 116.286 22.3036C116.942 21.9059 117.27 21.2072 117.27 20.2075C117.27 19.1004 116.84 18.3694 115.98 18.0147C115.238 17.7674 114.292 17.6438 113.142 17.6438H107.918ZM107.918 26.8183V33.155H113.755C114.797 33.155 115.609 33.0153 116.189 32.7358C117.243 32.2198 117.77 31.2309 117.77 29.769C117.77 28.5328 117.259 27.6836 116.238 27.2214C115.668 26.9634 114.867 26.8291 113.835 26.8183H107.918ZM114.722 13.5161C117.635 13.5591 119.699 14.4029 120.914 16.0476C121.645 17.058 122.01 18.2673 122.01 19.6754C122.01 21.1266 121.645 22.2929 120.914 23.1743C120.505 23.6688 119.903 24.1203 119.108 24.5287C120.323 24.9695 121.236 25.6682 121.849 26.6248C122.472 27.5815 122.784 28.7424 122.784 30.1076C122.784 31.5158 122.429 32.7788 121.72 33.8967C121.269 34.6384 120.704 35.2619 120.027 35.7671C119.264 36.3475 118.361 36.7453 117.318 36.9603C116.286 37.1752 115.163 37.2827 113.948 37.2827H103.178V13.5161H114.722Z" fill="#0C2321"/>
<path d="M135.95 28.7371C135.659 28.9198 135.364 29.0703 135.063 29.1885C134.773 29.296 134.369 29.3981 133.854 29.4949L132.822 29.6884C131.854 29.8604 131.161 30.07 130.742 30.3172C130.032 30.7364 129.677 31.3868 129.677 32.2682C129.677 33.0529 129.892 33.6226 130.322 33.9773C130.763 34.3213 131.295 34.4933 131.919 34.4933C132.908 34.4933 133.816 34.2031 134.644 33.6226C135.482 33.0421 135.917 31.9833 135.95 30.4462V28.7371ZM133.16 26.5926C134.009 26.4851 134.617 26.3507 134.982 26.1895C135.638 25.91 135.966 25.4747 135.966 24.8835C135.966 24.1633 135.713 23.6688 135.208 23.4001C134.713 23.1206 133.983 22.9808 133.015 22.9808C131.929 22.9808 131.161 23.2496 130.709 23.787C130.387 24.1848 130.172 24.7222 130.064 25.3994H125.63C125.727 23.8623 126.157 22.5992 126.92 21.6103C128.135 20.0624 130.22 19.2885 133.176 19.2885C135.1 19.2885 136.81 19.6701 138.304 20.4333C139.798 21.1965 140.545 22.6369 140.545 24.7545V32.8164C140.545 33.3754 140.556 34.0526 140.577 34.848C140.609 35.45 140.701 35.8585 140.851 36.0734C141.002 36.2884 141.228 36.4658 141.529 36.6055V37.2827H136.53C136.39 36.928 136.294 36.5948 136.24 36.2831C136.186 35.9713 136.143 35.6166 136.111 35.2189C135.477 35.9068 134.746 36.4927 133.918 36.9764C132.929 37.5461 131.811 37.8309 130.564 37.8309C128.973 37.8309 127.657 37.3795 126.614 36.4765C125.582 35.5629 125.066 34.2729 125.066 32.6068C125.066 30.4462 125.899 28.8822 127.565 27.9148C128.479 27.388 129.823 27.0118 131.596 26.7861L133.16 26.5926Z" fill="#0C2321"/>
<path d="M154.049 19.2885C155.866 19.2885 157.349 19.7668 158.499 20.7235C159.66 21.6694 160.241 23.2442 160.241 25.4478V37.2827H155.532V26.5926C155.532 25.6682 155.409 24.9587 155.162 24.4642C154.71 23.5613 153.85 23.1098 152.582 23.1098C151.023 23.1098 149.954 23.7709 149.373 25.0931C149.072 25.7918 148.922 26.684 148.922 27.7696V37.2827H144.342V19.7399H148.777V22.3036C149.368 21.4007 149.927 20.7504 150.453 20.3526C151.399 19.6432 152.598 19.2885 154.049 19.2885Z" fill="#0C2321"/>
<path d="M164.119 13.5967H168.633V26.3991L174.357 19.7883H180.049L173.906 26.512L180.291 37.2827H174.744L170.536 29.769L168.633 31.7522V37.2827H164.119V13.5967Z" fill="#0C2321"/>
<path d="M200.624 19.2885C200.71 19.2885 200.78 19.2938 200.833 19.3046C200.898 19.3046 201.032 19.31 201.237 19.3207V24.0289C200.946 23.9966 200.688 23.9751 200.463 23.9644C200.237 23.9536 200.054 23.9483 199.914 23.9483C198.066 23.9483 196.824 24.5502 196.19 25.7541C195.835 26.4314 195.658 27.474 195.658 28.8822V37.2827H191.03V19.7077H195.416V22.7712C196.125 21.5996 196.743 20.7987 197.27 20.3688C198.13 19.6486 199.248 19.2885 200.624 19.2885Z" fill="#0C2321"/>
<path d="M208.194 19.7077V30.3011C208.194 31.3008 208.313 32.0532 208.549 32.5584C208.968 33.4506 209.791 33.8967 211.016 33.8967C212.585 33.8967 213.66 33.2625 214.241 31.9941C214.542 31.3061 214.692 30.3978 214.692 29.2692V19.7077H219.352V37.2827H214.886V34.7997C214.843 34.8534 214.735 35.0146 214.563 35.2834C214.391 35.5521 214.187 35.7886 213.951 35.9928C213.23 36.6378 212.532 37.0785 211.855 37.315C211.188 37.5515 210.403 37.6697 209.5 37.6697C206.899 37.6697 205.147 36.7345 204.244 34.8641C203.739 33.8322 203.486 32.3112 203.486 30.3011V19.7077H208.194Z" fill="#0C2321"/>
<path d="M82.0217 14.4185L85.7878 10.6523L89.554 14.4185L85.7878 18.1846L82.0217 14.4185Z" fill="#29BFB3"/>
<path d="M181.087 33.5923L184.853 29.8262L188.619 33.5923L184.853 37.3584L181.087 33.5923Z" fill="#29BFB3"/>
</svg>
