<svg width="60" height="60" viewBox="0 0 60 60" fill="none" xmlns="http://www.w3.org/2000/svg">
<g clip-path="url(#clip0)">
<path d="M30.0003 0C13.4323 0 0.000976562 13.4317 0.000976562 29.9997C0.000976562 46.5673 13.4323 60 30.0003 60C46.5682 60 60.0006 46.5673 60.0006 29.9997C60.0006 13.4313 46.5682 0 30.0003 0ZM30.0917 44.153V44.1526H29.9085H17.0939C17.0939 34.7813 25.3244 34.7835 27.1508 32.3331L27.3598 31.2157C24.7938 29.9153 22.9824 26.7801 22.9824 23.1132C22.9824 18.2824 26.1248 14.3655 30.0003 14.3655C33.8757 14.3655 37.0181 18.2824 37.0181 23.1132C37.0181 26.7489 35.2389 29.8645 32.7071 31.1855L32.9451 32.4553C34.9489 34.7869 42.9056 34.9389 42.9056 44.153H30.0917Z" fill="#29BFB3"/>
</g>
<defs>
<clipPath id="clip0">
<rect width="60" height="60" fill="white"/>
</clipPath>
</defs>
</svg>
