<svg width="30" height="30" viewBox="0 0 30 30" fill="none" xmlns="http://www.w3.org/2000/svg">
<path d="M27.3633 1.81641H6.15231C5.00798 1.81641 4.04153 2.5534 3.67749 3.57422H29.8381C29.474 2.5534 28.5076 1.81641 27.3633 1.81641Z" fill="white"/>
<path d="M3.51562 5.33203V7.08984H23.8477C26.2707 7.08984 28.2422 9.06135 28.2422 11.4844V20.9904C29.263 20.6264 30 19.66 30 18.5156V5.33203H3.51562Z" fill="white"/>
<path d="M23.8477 8.84766H2.63672C1.18277 8.84766 0 10.0304 0 11.4844V12.3633H26.4844V11.4844C26.4844 10.0304 25.3016 8.84766 23.8477 8.84766Z" fill="white"/>
<path d="M6.15234 21.1523C5.66742 21.1523 5.27344 21.5463 5.27344 22.0312C5.27344 22.5162 5.66742 22.9102 6.15234 22.9102C6.63727 22.9102 7.03125 22.5162 7.03125 22.0312C7.03125 21.5463 6.63727 21.1523 6.15234 21.1523Z" fill="white"/>
<path d="M9.66797 21.1523C9.18305 21.1523 8.78906 21.5463 8.78906 22.0312C8.78906 22.5162 9.18305 22.9102 9.66797 22.9102C10.1529 22.9102 10.5469 22.5162 10.5469 22.0312C10.5469 21.5463 10.1529 21.1523 9.66797 21.1523Z" fill="white"/>
<path d="M0 15.8789V25.5469C0 27.0008 1.18277 28.1836 2.63672 28.1836H23.8477C25.3016 28.1836 26.4844 27.0008 26.4844 25.5469V15.8789H0ZM9.66797 24.668C8.99021 24.668 8.37773 24.4038 7.91016 23.9822C7.44258 24.4038 6.8301 24.668 6.15234 24.668C4.6984 24.668 3.51562 23.4852 3.51562 22.0312C3.51562 20.5773 4.6984 19.3945 6.15234 19.3945C6.8301 19.3945 7.44258 19.6587 7.91016 20.0803C8.37773 19.6587 8.99021 19.3945 9.66797 19.3945C11.1219 19.3945 12.3047 20.5773 12.3047 22.0312C12.3047 23.4852 11.1219 24.668 9.66797 24.668ZM22.0898 24.668H14.9414C14.4556 24.668 14.0625 24.2749 14.0625 23.7891C14.0625 23.3033 14.4556 22.9102 14.9414 22.9102H22.0898C22.5756 22.9102 22.9688 23.3033 22.9688 23.7891C22.9688 24.2749 22.5756 24.668 22.0898 24.668ZM22.0898 21.1523H14.9414C14.4556 21.1523 14.0625 20.7592 14.0625 20.2734C14.0625 19.7876 14.4556 19.3945 14.9414 19.3945H22.0898C22.5756 19.3945 22.9688 19.7876 22.9688 20.2734C22.9688 20.7592 22.5756 21.1523 22.0898 21.1523Z" fill="white"/>
</svg>
