<svg width="30" height="30" viewBox="0 0 30 30" fill="none" xmlns="http://www.w3.org/2000/svg">
<g clip-path="url(#clip0)">
<path d="M16.7222 5.34131H6.49539C5.7422 5.34131 5.13135 5.95216 5.13135 6.70471C5.13135 7.45727 5.7422 8.06812 6.49539 8.06812H16.7222C17.4767 8.06812 18.0862 7.45727 18.0862 6.70471C18.0856 5.95216 17.476 5.34131 16.7222 5.34131Z" fill="#AFC9C9"/>
<path d="M18.0856 11.818C18.0856 11.0648 17.476 10.4546 16.7216 10.4546H6.49539C5.7422 10.4546 5.13135 11.0654 5.13135 11.818C5.13135 12.5712 5.7422 13.182 6.49539 13.182H16.7222C17.476 13.182 18.0856 12.5712 18.0856 11.818Z" fill="#AFC9C9"/>
<path d="M11.6094 18.2953C12.3626 18.2953 12.9728 17.6845 12.9728 16.9319C12.9728 16.1787 12.3626 15.5679 11.6094 15.5679H6.49539C5.7422 15.5679 5.13135 16.1787 5.13135 16.9319C5.13135 17.6851 5.7422 18.2953 6.49539 18.2953H11.6094Z" fill="#AFC9C9"/>
<path d="M21.9025 22.934L20.4721 23.8781V27.2726H2.74527V2.72745H20.4721V8.11596L23.1995 3.39192V1.3634C23.1995 0.610213 22.5887 0 21.8355 0H1.38123C0.628035 0 0.0178223 0.610851 0.0178223 1.3634V28.6372C0.0178223 29.3904 0.628035 30.0006 1.38123 30.0006H21.8355C22.5893 30.0006 23.2002 29.3898 23.2002 28.6372V21.1213L22.5485 22.2485C22.3895 22.5236 22.1661 22.7604 21.9025 22.934Z" fill="#AFC9C9"/>
<path d="M29.9661 6.3154C29.938 6.19285 29.6501 5.09115 27.9152 4.08902C26.1803 3.08753 25.0824 3.38881 24.9612 3.42647C24.7984 3.47817 24.6612 3.58796 24.5756 3.73604L16.0531 18.4973C16.0001 18.5899 15.9688 18.6926 15.9624 18.7986L15.6433 24.1252C15.628 24.3831 15.7595 24.6269 15.9822 24.7565C16.2069 24.8854 16.4833 24.8765 16.699 24.7354L21.1524 21.7954C21.2412 21.738 21.3146 21.6594 21.3676 21.5682L29.8907 6.80434C29.9763 6.65626 30.0024 6.48264 29.9661 6.3154ZM18.4173 22.3756C18.1907 22.1924 17.9335 22.0194 17.6571 21.8592C17.3795 21.699 17.1012 21.5643 16.8293 21.4584L16.9244 19.8614C17.2799 19.908 17.8071 20.0522 18.4767 20.4377C19.1456 20.8239 19.5331 21.2094 19.7527 21.4935L18.4173 22.3756Z" fill="#AFC9C9"/>
<path d="M9.52461 24.5961C9.56929 24.8699 9.88524 24.9548 10.0965 25.0429C10.3008 25.1291 10.5446 24.9657 10.7144 24.8833C11.7548 24.3772 13.1642 24.972 14.2786 24.972C14.938 24.972 14.938 23.9495 14.2786 23.9495C12.9791 23.9495 11.8978 23.6208 10.6097 23.8333C10.6097 23.7586 10.5823 23.6578 10.5018 23.5206C10.2612 23.1089 9.95482 22.992 9.6478 23.0418C9.62737 22.9933 9.60758 22.9448 9.57886 22.8957C9.49844 22.7642 9.3861 22.6984 9.25971 22.671C9.61907 22.0429 9.85078 21.3784 9.61524 20.841C9.54312 20.6776 9.33822 20.594 9.17354 20.5876C8.49056 20.562 7.90461 21.2789 7.46546 21.7091C6.36695 22.7859 5.39929 24.0082 4.4629 25.2248C4.06078 25.7476 4.94992 26.2557 5.34567 25.7418C6.17546 24.6644 7.05439 23.6182 8.00035 22.6397C7.77248 23.0137 7.53056 23.3808 7.27588 23.7344C6.91205 24.2967 7.78078 24.7754 8.15865 24.2508C8.24865 24.1135 8.3629 24.0146 8.48801 23.9297C8.46312 23.9929 8.43758 24.0548 8.41205 24.1186C8.41333 24.1186 8.41461 24.1193 8.41588 24.1199C8.3961 24.1608 8.37631 24.2016 8.36035 24.2406C8.13184 24.8131 8.98524 25.0754 9.29546 24.6337C9.37397 24.5227 9.44673 24.404 9.51248 24.2795C9.50801 24.365 9.5061 24.4799 9.52461 24.5961Z" fill="#AFC9C9"/>
</g>
<defs>
<clipPath id="clip0">
<rect width="30" height="30" fill="white"/>
</clipPath>
</defs>
</svg>
