<svg width="30" height="30" viewBox="0 0 30 30" fill="none" xmlns="http://www.w3.org/2000/svg">
<path d="M8.14376 5.33203H14.7076C15.6476 3.22535 17.3005 1.52186 17.3143 1.49414C17.578 1.24805 17.6483 0.878906 17.5077 0.544922C17.3671 0.210938 17.0507 0 16.6991 0C15.1171 0 14.2558 0.5625 13.5702 1.01953C12.955 1.44141 12.4804 1.75781 11.4257 1.75781C10.371 1.75781 9.89641 1.44141 9.28118 1.01953C8.59563 0.5625 7.73431 0 6.15228 0C5.80071 0 5.48431 0.210938 5.34368 0.544922C5.20306 0.878906 5.27337 1.24805 5.53704 1.49414C5.55093 1.52186 7.2038 3.22535 8.14376 5.33203Z" fill="#AFC9C9"/>
<path d="M17.6367 27.3633V29.1211C17.6367 29.6065 18.0302 30 18.5156 30H29.1211C29.6065 30 30 29.6065 30 29.1211V27.3633C30 26.8779 29.6065 26.4844 29.1211 26.4844H18.5156C18.0302 26.4844 17.6367 26.8779 17.6367 27.3633Z" fill="#AFC9C9"/>
<path d="M30 23.8477V22.0898C30 21.6045 29.6065 21.2109 29.1211 21.2109H18.5156C18.0302 21.2109 17.6367 21.6045 17.6367 22.0898V23.8477C17.6367 24.333 18.0302 24.7266 18.5156 24.7266H29.1211C29.6065 24.7266 30 24.333 30 23.8477Z" fill="#AFC9C9"/>
<path d="M17.5254 14.2148C15.8027 12.5273 14.3965 11.0977 14.1152 8.84766H14.9414C15.4336 8.84766 15.8203 8.46094 15.8203 7.96875C15.8203 7.47656 15.4336 7.08984 14.9414 7.08984H7.91016C7.41797 7.08984 7.03125 7.47656 7.03125 7.96875C7.03125 8.46094 7.41797 8.84766 7.91016 8.84766H8.73633C8.45508 11.0977 7.04883 12.5273 5.32617 14.2148C2.83008 16.6582 0 19.4355 0 25.7812C0.0351562 28.1016 2.02148 30 4.39453 30H15.982C15.8836 29.724 15.8203 29.4305 15.8203 29.1211V22.0898C15.8203 20.6361 17.0033 19.4531 18.457 19.4531H21.6053C20.5418 17.1738 18.9645 15.627 17.5254 14.2148ZM11.4258 19.4531C12.8797 19.4531 14.0625 20.6359 14.0625 22.0898C14.0625 23.2342 13.3255 24.2006 12.3047 24.5647V25.6055C12.3047 26.0913 11.9116 26.4844 11.4258 26.4844C10.94 26.4844 10.5469 26.0913 10.5469 25.6055V24.5647C9.52605 24.2007 8.78906 23.2342 8.78906 22.0898C8.78906 21.604 9.18217 21.2109 9.66797 21.2109C10.1538 21.2109 10.5469 21.604 10.5469 22.0898C10.5469 22.5748 10.9409 22.9688 11.4258 22.9688C11.9107 22.9688 12.3047 22.5748 12.3047 22.0898C12.3047 21.6049 11.9107 21.2109 11.4258 21.2109C9.97184 21.2109 8.78906 20.0282 8.78906 18.5742C8.78906 17.4299 9.52605 16.4634 10.5469 16.0994V15.0586C10.5469 14.5728 10.94 14.1797 11.4258 14.1797C11.9116 14.1797 12.3047 14.5728 12.3047 15.0586V16.0994C13.3255 16.4634 14.0625 17.4299 14.0625 18.5742C14.0625 19.06 13.6694 19.4531 13.1836 19.4531C12.6978 19.4531 12.3047 19.06 12.3047 18.5742C12.3047 18.0893 11.9107 17.6953 11.4258 17.6953C10.9409 17.6953 10.5469 18.0893 10.5469 18.5742C10.5469 19.0591 10.9409 19.4531 11.4258 19.4531Z" fill="#AFC9C9"/>
</svg>
