<svg width="30" height="30" viewBox="0 0 30 30" fill="none" xmlns="http://www.w3.org/2000/svg">
<path d="M14.5584 20.5979L11.2539 21.8516C10.2995 22.2137 9.37628 21.2558 9.77345 20.3154L10.6691 18.1947C10.848 17.771 10.7598 17.2816 10.4442 16.9471L8.32124 14.6966C7.71159 14.0503 8.02477 12.9867 8.88729 12.7739L11.947 12.0189C12.2921 11.9337 12.5792 11.6951 12.7259 11.3713L13.9132 8.75117C14.3249 7.84271 15.6152 7.84271 16.0269 8.75117L17.2143 11.3713C17.361 11.695 17.648 11.9337 17.9931 12.0189L21.0528 12.7739C21.9154 12.9867 22.2285 14.0503 21.6189 14.6966L19.4959 16.9471C19.1803 17.2816 19.0921 17.771 19.2711 18.1947L20.1667 20.3154C20.5638 21.2558 19.6406 22.2137 18.6863 21.8516L15.3817 20.5979C15.1164 20.4973 14.8236 20.4973 14.5584 20.5979Z" fill="#AFC9C9"/>
<path d="M13.9996 19.1803C14.1785 18.7566 14.0903 18.2672 13.7747 17.9327L11.6517 15.6822C11.0421 15.036 11.3553 13.9724 12.2178 13.7595L15.2775 13.0046C15.6226 12.9194 15.9096 12.6808 16.0563 12.357L16.8587 10.5866L16.0269 8.75117C15.6152 7.84271 14.3249 7.84271 13.9132 8.75117L12.7258 11.3713C12.5791 11.695 12.2921 11.9337 11.947 12.0189L8.88726 12.7739C8.02474 12.9867 7.71163 14.0503 8.32121 14.6965L10.4442 16.947C10.7598 17.2815 10.848 17.7709 10.669 18.1946L9.77342 20.3153C9.37631 21.2557 10.2995 22.2136 11.2538 21.8515L13.1801 21.1208L13.9996 19.1803Z" fill="#AFC9C9"/>
<path d="M3.6669 20.6129L1.81825 21.3142C1.28434 21.5168 0.767915 20.9809 0.990042 20.4549L1.49103 19.2685C1.59112 19.0315 1.5418 18.7577 1.36526 18.5706L0.177626 17.3116C-0.163403 16.9501 0.0117539 16.3551 0.494295 16.236L2.20595 15.8136C2.39902 15.766 2.55958 15.6325 2.64164 15.4514L3.30592 13.9857C3.53624 13.4774 4.25803 13.4774 4.4883 13.9857L5.15257 15.4514C5.23463 15.6325 5.3952 15.766 5.58826 15.8136L7.29992 16.236C7.78246 16.3551 7.95762 16.9501 7.61659 17.3116L6.42896 18.5706C6.25242 18.7577 6.20309 19.0315 6.30318 19.2685L6.80418 20.4549C7.0263 20.9809 6.50988 21.5168 5.97596 21.3142L4.12732 20.6129C3.97905 20.5566 3.81523 20.5566 3.6669 20.6129Z" fill="#AFC9C9"/>
<path d="M2.60909 20.9992L3.11008 19.8128C3.21017 19.5758 3.16085 19.3021 2.9843 19.1149L1.79667 17.856C1.45564 17.4944 1.6308 16.8994 2.11334 16.7804L3.825 16.358C4.01806 16.3104 4.17863 16.1769 4.26069 15.9958L4.82999 14.7395L4.4883 13.9856C4.25797 13.4775 3.53618 13.4775 3.30592 13.9856L2.64164 15.4514C2.55958 15.6325 2.39902 15.766 2.20595 15.8136L0.494296 16.236C0.0117539 16.3551 -0.163403 16.9501 0.177626 17.3115L1.36526 18.5705C1.5418 18.7577 1.59112 19.0314 1.49103 19.2684L0.990042 20.4548C0.767915 20.9809 1.28434 21.5168 1.81825 21.3142L2.60245 21.0166C2.60474 21.0108 2.60661 21.005 2.60909 20.9992Z" fill="#AFC9C9"/>
<path d="M26.3334 20.6129L28.182 21.3142C28.7159 21.5168 29.2323 20.9809 29.0102 20.4549L28.5092 19.2685C28.4091 19.0315 28.4585 18.7577 28.635 18.5706L29.8226 17.3116C30.1637 16.9501 29.9885 16.3551 29.506 16.236L27.7943 15.8136C27.6012 15.766 27.4407 15.6325 27.3586 15.4514L26.6943 13.9857C26.464 13.4774 25.7422 13.4774 25.512 13.9857L24.8477 15.4514C24.7656 15.6325 24.6051 15.766 24.412 15.8136L22.7003 16.236C22.2178 16.3551 22.0427 16.9501 22.3837 17.3116L23.5713 18.5706C23.7479 18.7577 23.7972 19.0315 23.6971 19.2685L23.1961 20.4549C22.974 20.9809 23.4904 21.5168 24.0243 21.3142L25.873 20.6129C26.0212 20.5566 26.185 20.5566 26.3334 20.6129Z" fill="#AFC9C9"/>
<path d="M28.1184 21.2784C28.0811 21.2642 28.0427 21.2536 28.0039 21.2466L28.182 21.3141C28.2209 21.3289 28.2596 21.3393 28.298 21.3465L28.1184 21.2784Z" fill="#AFC9C9"/>
<path d="M25.4822 19.9341C25.5823 19.6971 25.533 19.4233 25.3564 19.2362L24.1688 17.9772C23.8277 17.6157 24.0029 17.0207 24.4854 16.9016L26.1971 16.4792C26.3902 16.4316 26.5507 16.2981 26.6328 16.117L27.1465 14.9834L26.6944 13.9856C26.464 13.4775 25.7422 13.4775 25.512 13.9856L24.8477 15.4514C24.7656 15.6325 24.6051 15.766 24.412 15.8136L22.7004 16.236C22.2178 16.3551 22.0427 16.9501 22.3837 17.3116L23.5713 18.5705C23.7479 18.7577 23.7972 19.0314 23.6971 19.2684L23.1961 20.4548C22.974 20.9809 23.4904 21.5168 24.0243 21.3142L25.0663 20.9188L25.4822 19.9341Z" fill="#AFC9C9"/>
</svg>
