<svg width="30" height="30" viewBox="0 0 30 30" fill="none" xmlns="http://www.w3.org/2000/svg">
<path d="M5.68465 20H0.631641C0.28248 20 0 20.2796 0 20.625C0 20.9705 0.28248 21.25 0.631641 21.25H5.68465C6.03375 21.25 6.31629 20.9705 6.31629 20.625C6.31629 20.2796 6.03381 20 5.68465 20Z" fill="#AFC9C9"/>
<path d="M6.31629 16.25H0.631641C0.28248 16.25 0 16.5296 0 16.875C0 17.2205 0.28248 17.5 0.631641 17.5H6.31629C6.66539 17.5 6.94793 17.2205 6.94793 16.875C6.94793 16.5296 6.66539 16.25 6.31629 16.25Z" fill="#AFC9C9"/>
<path d="M6.94793 12.5H0.631641C0.28248 12.5 0 12.7796 0 13.125C0 13.4705 0.28248 13.75 0.631641 13.75H6.94793C7.29703 13.75 7.57957 13.4705 7.57957 13.125C7.57957 12.7796 7.29703 12.5 6.94793 12.5Z" fill="#AFC9C9"/>
<path d="M11.8035 10.0903C14.3165 12.5311 17.1655 15.2984 18.0168 16.0913C18.1346 16.2006 18.2938 16.2573 18.4541 16.2573C18.5294 16.2573 18.6047 16.2451 18.6762 16.2195C18.7311 16.1999 18.8779 16.148 19.0506 16.0308C20.1603 15.2783 23.7823 12.9064 27.1687 10.689L29.5311 9.1418C29.689 9.03803 29.792 8.86898 29.8105 8.68219C29.8291 8.49539 29.7624 8.31047 29.628 8.1774C29.1843 7.74047 28.5959 7.5 27.9705 7.5H12.2754C11.7122 7.5 11.1565 7.69289 10.7093 8.04258C10.5674 8.15426 10.4804 8.32031 10.4706 8.49973C10.4613 8.6792 10.5298 8.85375 10.6593 8.97885L11.8035 10.0903Z" fill="#AFC9C9"/>
<path d="M29.7236 10.9808C29.5115 10.8386 29.2338 10.8361 29.0205 10.9759L27.6085 11.9006C24.3048 14.0637 20.8444 16.3299 19.7643 17.0617C18.8922 17.6555 17.8207 17.6257 17.1508 17.0006C16.2904 16.1998 13.4363 13.4276 10.8851 10.9496L10.5532 10.6273C10.3885 10.4668 10.1498 10.4082 9.92779 10.4748C9.70695 10.5407 9.53979 10.7207 9.49232 10.9441L7.63016 19.6971C7.59688 19.8546 7.57959 20.0158 7.57959 20.1769C7.57959 21.458 8.63252 22.4999 9.92721 22.4999H25.6223C26.8097 22.4999 27.8496 21.6655 28.0951 20.515L29.9863 11.6265C30.0395 11.3787 29.9352 11.1236 29.7236 10.9808Z" fill="#AFC9C9"/>
<path d="M0.631641 10H7.57957C7.92867 10 8.21121 9.72049 8.21121 9.37502C8.21121 9.02955 7.92873 8.75 7.57957 8.75H0.631641C0.28248 8.75 0 9.02955 0 9.37502C0 9.72049 0.28248 10 0.631641 10Z" fill="#AFC9C9"/>
</svg>
