<svg width="18" height="18" viewBox="0 0 18 18" fill="none" xmlns="http://www.w3.org/2000/svg">
<g clip-path="url(#clip0)">
<path d="M11.1791 4.42036C11.2037 4.39262 11.3189 4.30198 11.7712 4.30198L13.2541 4.30143C13.7365 4.30143 14.1288 3.90977 14.1288 3.42829V0.841555C14.1288 0.360902 13.737 -0.0307617 13.2555 -0.0315857L11.0528 -0.0351562C9.69332 -0.0351562 8.53764 0.4124 7.71067 1.25931C6.88743 2.10238 6.4522 3.27929 6.4522 4.66261V6.05774H4.76718C4.28476 6.05774 3.89233 6.4494 3.89233 6.93088V9.71674C3.89233 10.1982 4.28476 10.5899 4.76718 10.5899H6.4522V17.0917C6.4522 17.5732 6.84463 17.9649 7.32705 17.9649H10.2152C10.6976 17.9649 11.0901 17.5732 11.0901 17.0917V10.59H13.1498C13.6322 10.59 14.0245 10.1982 14.0245 9.71702L14.0256 6.93101C14.0256 6.61474 13.8532 6.3221 13.5755 6.16733C13.4469 6.09564 13.2971 6.05774 13.1428 6.05774H11.0901V4.95553C11.0901 4.59628 11.1385 4.46623 11.1791 4.42036Z" fill="#8E9696"/>
</g>
<defs>
<clipPath id="clip0">
<rect width="18" height="18" fill="white"/>
</clipPath>
</defs>
</svg>
