<svg width="18" height="18" viewBox="0 0 18 18" fill="none" xmlns="http://www.w3.org/2000/svg">
<g clip-path="url(#clip0)">
<path d="M3.54073 9.66081C3.08098 10.5646 3.60298 10.9966 4.79398 11.7346C5.80648 12.3601 7.20523 12.5888 8.10373 12.6803C7.73548 13.0343 9.42298 11.4113 4.56298 16.086C3.53248 17.0738 5.19148 18.6585 6.22123 17.6918L9.00898 15.003C10.0762 16.0298 11.0992 17.0138 11.7967 17.6955C12.8272 18.666 14.4855 17.0948 13.4662 16.0898C13.3897 16.017 9.68848 12.4666 9.91423 12.6841C10.824 12.5926 12.2017 12.3503 13.2022 11.7383L13.2015 11.7376C14.3925 10.9958 14.9145 10.5646 14.4615 9.66081C14.1877 9.14781 13.4497 8.71882 12.4672 9.46056C12.4672 9.46056 11.1405 10.4768 9.00073 10.4768C6.86023 10.4768 5.53423 9.46056 5.53423 9.46056C4.55248 8.71507 3.81148 9.14781 3.54073 9.66081Z" fill="#8E9696"/>
<path d="M8.99926 9.1065C11.6078 9.1065 13.7378 7.068 13.7378 4.5585C13.7378 2.0385 11.6078 0 8.99926 0C6.39001 0 4.26001 2.0385 4.26001 4.5585C4.26001 7.068 6.39001 9.1065 8.99926 9.1065ZM8.99926 2.30925C10.281 2.30925 11.3265 3.315 11.3265 4.5585C11.3265 5.7915 10.281 6.79725 8.99926 6.79725C7.71751 6.79725 6.67201 5.7915 6.67201 4.5585C6.67126 3.31425 7.71676 2.30925 8.99926 2.30925Z" fill="#8E9696"/>
</g>
<defs>
<clipPath id="clip0">
<rect width="18" height="18" fill="white"/>
</clipPath>
</defs>
</svg>
