<svg width="18" height="18" viewBox="0 0 18 18" fill="none" xmlns="http://www.w3.org/2000/svg">
<g clip-path="url(#clip0)">
<path d="M17.8393 13.0253C17.791 12.9443 17.4917 12.294 16.0516 10.9574C14.544 9.55776 14.7465 9.78503 16.5624 7.36498C17.6683 5.89112 18.1105 4.99105 17.9721 4.60627C17.8405 4.23949 17.027 4.33625 17.027 4.33625L14.3223 4.352C14.3223 4.352 14.1221 4.325 13.9724 4.41388C13.8273 4.50164 13.7339 4.70415 13.7339 4.70415C13.7339 4.70415 13.3052 5.84499 12.7337 6.81481C11.5287 8.86134 11.0461 8.96935 10.8492 8.84221C10.3913 8.54631 10.506 7.65187 10.506 7.01733C10.506 5.0338 10.8064 4.20687 9.91987 3.9931C9.6251 3.92222 9.40908 3.87497 8.6564 3.86709C7.69108 3.85697 6.87314 3.87047 6.41073 4.09661C6.10246 4.24737 5.86507 4.58377 6.0102 4.6029C6.18909 4.62652 6.59412 4.71203 6.80901 5.00455C7.08691 5.38145 7.07678 6.22977 7.07678 6.22977C7.07678 6.22977 7.23654 8.56432 6.70438 8.85459C6.33873 9.05373 5.83806 8.64757 4.76361 6.79006C4.21344 5.83936 3.79716 4.78741 3.79716 4.78741C3.79716 4.78741 3.71728 4.59165 3.5744 4.48701C3.40113 4.35988 3.15812 4.31938 3.15812 4.31938L0.586176 4.33513C0.586176 4.33513 0.200272 4.34638 0.0585114 4.51401C-0.067498 4.66365 0.0483856 4.97192 0.0483856 4.97192C0.0483856 4.97192 2.06229 9.68265 4.3417 12.0577C6.43323 14.2347 8.80716 14.0919 8.80716 14.0919H9.88274C9.88274 14.0919 10.2079 14.0558 10.3733 13.877C10.5263 13.7127 10.5207 13.4044 10.5207 13.4044C10.5207 13.4044 10.4993 11.9609 11.1698 11.7483C11.8303 11.539 12.6786 13.1434 13.5775 13.7611C14.2571 14.228 14.7735 14.1256 14.7735 14.1256L17.1778 14.0919C17.1778 14.0919 18.4356 14.0142 17.8393 13.0253Z" fill="white"/>
</g>
<defs>
<clipPath id="clip0">
<rect width="18" height="18" fill="white"/>
</clipPath>
</defs>
</svg>
