<svg width="18" height="18" viewBox="0 0 18 18" fill="none" xmlns="http://www.w3.org/2000/svg">
<path d="M12.7791 0H10.2217C7.63063 0 5.01625 1.91329 5.01625 6.18772C5.01625 8.40178 5.95466 10.1262 7.67479 11.1068L4.52637 16.8054C4.37714 17.0749 4.37325 17.3803 4.51596 17.6224C4.65529 17.8588 4.90999 18 5.19726 18H6.78975C7.15155 18 7.4337 17.8251 7.56892 17.5188L10.5209 11.745H10.7363V17.2804C10.7363 17.6705 11.0655 18 11.4551 18H12.8464C13.2833 18 13.5884 17.6949 13.5884 17.2581V0.787612C13.5885 0.323887 13.2557 0 12.7791 0ZM10.7364 9.18022H10.3563C8.88275 9.18022 8.003 7.97737 8.003 5.96261C8.003 3.45741 9.11433 2.56483 10.1544 2.56483H10.7364V9.18022Z" fill="#8E9696"/>
</svg>
