<svg width="18" height="18" viewBox="0 0 18 18" fill="none" xmlns="http://www.w3.org/2000/svg">
<path d="M17.081 4.78227C16.8865 4.05933 16.3165 3.48945 15.5937 3.29479C14.2732 2.93347 8.991 2.93347 8.991 2.93347C8.991 2.93347 3.70902 2.93347 2.3885 3.28109C1.67957 3.47555 1.09568 4.05944 0.901222 4.78227C0.553711 6.10269 0.553711 8.84108 0.553711 8.84108C0.553711 8.84108 0.553711 11.5933 0.901222 12.8999C1.09589 13.6227 1.66566 14.1926 2.3886 14.3873C3.72292 14.7487 8.99121 14.7487 8.99121 14.7487C8.99121 14.7487 14.2732 14.7487 15.5937 14.4011C16.3167 14.2065 16.8865 13.6366 17.0812 12.9138C17.4286 11.5933 17.4286 8.85498 17.4286 8.85498C17.4286 8.85498 17.4425 6.10269 17.081 4.78227ZM7.30927 11.3709V6.31126L11.7017 8.84108L7.30927 11.3709Z" fill="#8E9696"/>
</svg>
