<svg width="18" height="18" viewBox="0 0 18 18" fill="none" xmlns="http://www.w3.org/2000/svg">
<g clip-path="url(#clip0)">
<path d="M4.34443 9.49395L12.67 17.7964C12.9427 18.0683 13.3844 18.0679 13.6567 17.795C13.9288 17.5223 13.9281 17.0804 13.6553 16.8083L5.82532 8.99997L13.6556 1.19166C13.9284 0.919548 13.9291 0.477953 13.657 0.205141C13.5205 0.0683841 13.3416 3.76933e-06 13.1628 3.75369e-06C12.9844 3.7381e-06 12.8063 0.0679263 12.67 0.203733L4.34443 8.50603C4.21306 8.63674 4.13933 8.81462 4.13933 8.99997C4.13933 9.18531 4.21327 9.36299 4.34443 9.49395Z" fill="#0C2321"/>
</g>
<defs>
<clipPath id="clip0">
<rect width="18" height="18" fill="white" transform="translate(18 18) rotate(-180)"/>
</clipPath>
</defs>
</svg>
