<svg width="16" height="16" viewBox="0 0 16 16" fill="none" xmlns="http://www.w3.org/2000/svg">
<g clip-path="url(#clip0)">
<path d="M12.3882 8.38574H14.2631V12.875H12.3882V8.38574Z" fill="#AFC9C9"/>
<path d="M8.83789 8.38574H10.7129V12.875H8.83789V8.38574Z" fill="#AFC9C9"/>
<path d="M5.28711 8.38574H7.16211V12.875H5.28711V8.38574Z" fill="#AFC9C9"/>
<path d="M1.73682 8.38574H3.61169V12.875H1.73682V8.38574Z" fill="#AFC9C9"/>
<path d="M14.8883 6.97949V6.51074H1.11182V6.97949C1.11182 7.2384 1.32166 7.44824 1.58057 7.44824H14.4196C14.6783 7.44824 14.8883 7.2384 14.8883 6.97949Z" fill="#AFC9C9"/>
<path d="M15.531 13.8125H0.469238C0.210327 13.8125 0.000488281 14.0223 0.000488281 14.2812V15.5312C0.000488281 15.7902 0.210327 16 0.469238 16H15.531C15.7899 16 15.9998 15.7902 15.9998 15.5312V14.2812C15.9998 14.0223 15.7899 13.8125 15.531 13.8125Z" fill="#AFC9C9"/>
<path d="M0.468707 5.57324H15.5312C15.7409 5.57324 15.9251 5.43396 15.9822 5.23218C16.0392 5.0304 15.9555 4.81519 15.7769 4.70532L8.24567 0.0695801C8.09504 -0.0231934 7.90497 -0.0231934 7.75422 0.0695801L0.22298 4.70532C0.0443917 4.81531 -0.0393484 5.0304 0.0177804 5.23218C0.0749092 5.43396 0.259113 5.57324 0.468707 5.57324ZM7.68134 2.75708H8.31867C8.57758 2.75708 8.78742 2.96692 8.78742 3.22583C8.78742 3.48474 8.57758 3.69458 8.31867 3.69458H7.68134C7.42243 3.69458 7.21259 3.48474 7.21259 3.22583C7.21259 2.96692 7.42243 2.75708 7.68134 2.75708Z" fill="#AFC9C9"/>
</g>
<defs>
<clipPath id="clip0">
<rect width="16" height="16" fill="white"/>
</clipPath>
</defs>
</svg>
