<svg xmlns="http://www.w3.org/2000/svg" display="none">

    <symbol id="tabs-icon-1" viewBox="0 0 30 30">
        <g clip-path="url(#clip0)">
            <path d="M28.8137 19.5687C28.5611 19.8748 28.2627 20.1504 27.9336 20.3723V23.8009H28.3622C29.2652 23.8009 29.9923 23.0738 29.9999 22.1784V18.0381L28.8137 19.5687Z"/>
            <path d="M21.5816 12.2446H25.9974C26.1276 12.2446 26.2653 12.2293 26.4031 12.1987V7.82118C26.4031 6.91812 25.6684 6.19873 24.773 6.19873H1.63775C0.734694 6.19873 0.00765306 6.92577 0 7.82118V25.3696C0.00765306 26.2727 0.734694 27.0074 1.63775 27.0151H24.773C25.676 27.0074 26.4031 26.2727 26.4031 25.3696L26.3954 20.9232C26.2653 20.9385 26.1276 20.9538 25.9898 20.9615H21.5816C19.1786 20.9538 17.227 19.0023 17.227 16.5992C17.227 14.1962 19.1786 12.2446 21.5816 12.2446Z"/>
            <path d="M28.3622 2.98486H5.22703C4.32396 2.99252 3.59692 3.72721 3.59692 4.63027V4.66854H24.7729C26.5178 4.66854 27.9337 6.0767 27.9337 7.8216V11.0206L30 8.35731V4.63027C29.9923 3.72721 29.2653 2.99252 28.3622 2.98486Z"/>
            <path d="M29.9923 10.8599L28.806 12.3905C28.4616 12.8344 28.0178 13.1941 27.5127 13.4313C27.0382 13.6609 26.5178 13.7757 25.9897 13.7757H21.5815C20.0203 13.7833 18.7576 15.0461 18.7576 16.6073C18.7576 18.1686 20.0203 19.4313 21.5815 19.439H25.9974C26.6249 19.4313 27.2219 19.1405 27.6045 18.643L29.9999 15.5359L29.9923 10.8599ZM23.2958 17.3726H21.4591C21.0382 17.3726 20.6938 17.0282 20.6938 16.6073C20.6938 16.1864 21.0382 15.842 21.4591 15.842H23.2958C23.7168 15.842 24.0611 16.1864 24.0611 16.6073C24.0611 17.0282 23.7168 17.3726 23.2958 17.3726Z"/>
        </g>
        <defs>
            <clipPath id="clip0">
                <rect width="30" height="30"/>
            </clipPath>
        </defs>
    </symbol>

    <symbol id="tabs-icon-2" viewBox="0 0 30 30">
        <path d="M4.45312 14.0625C5.1622 14.0625 5.80399 13.778 6.27823 13.3212L8.87993 14.6219C8.86688 14.7279 8.84766 14.832 8.84766 14.9414C8.84766 16.3953 10.0305 17.5781 11.4844 17.5781C12.9382 17.5781 14.1211 16.3953 14.1211 14.9414C14.1211 14.5356 14.0213 14.1557 13.8567 13.8119L17.3861 10.2825C17.7299 10.4471 18.1098 10.5469 18.5156 10.5469C19.9695 10.5469 21.1523 9.36401 21.1523 7.91016C21.1523 7.63641 21.0986 7.37755 21.0207 7.12921L24.0873 4.82986C24.5057 5.10933 25.0072 5.27344 25.5469 5.27344C27.0007 5.27344 28.1836 4.09058 28.1836 2.63672C28.1836 1.18286 27.0007 0 25.5469 0C24.093 0 22.9102 1.18286 22.9102 2.63672C22.9102 2.91046 22.9639 3.16933 23.0418 3.41766L19.9752 5.71701C19.5568 5.43755 19.0553 5.27344 18.5156 5.27344C17.0618 5.27344 15.8789 6.4563 15.8789 7.91016C15.8789 8.31596 15.9787 8.69591 16.1433 9.03969L12.6139 12.569C12.2701 12.4045 11.8902 12.3047 11.4844 12.3047C10.7753 12.3047 10.1335 12.5892 9.65927 13.046L7.05757 11.7453C7.07062 11.6393 7.08984 11.5352 7.08984 11.4258C7.08984 9.97192 5.90698 8.78906 4.45312 8.78906C2.99927 8.78906 1.81641 9.97192 1.81641 11.4258C1.81641 12.8796 2.99927 14.0625 4.45312 14.0625Z"/>
        <path d="M29.1211 28.2422H28.1836V9.66797C28.1836 9.18228 27.7904 8.78906 27.3047 8.78906H23.7891C23.3034 8.78906 22.9102 9.18228 22.9102 9.66797V28.2422H21.1523V14.9414C21.1523 14.4557 20.7591 14.0625 20.2734 14.0625H16.7578C16.2721 14.0625 15.8789 14.4557 15.8789 14.9414V28.2422H14.1211V21.9727C14.1211 21.487 13.7279 21.0938 13.2422 21.0938H9.72656C9.24088 21.0938 8.84766 21.487 8.84766 21.9727V28.2422H7.08984V18.457C7.08984 17.9713 6.69662 17.5781 6.21094 17.5781H2.69531C2.20963 17.5781 1.81641 17.9713 1.81641 18.457V28.2422H0.878906C0.393219 28.2422 0 28.6354 0 29.1211C0 29.6068 0.393219 30 0.878906 30H29.1211C29.6068 30 30 29.6068 30 29.1211C30 28.6354 29.6068 28.2422 29.1211 28.2422Z"/>
    </symbol>

    <symbol id="tabs-icon-3" viewBox="0 0 30 30">
        <g clip-path="url(#clip0)">
            <path d="M9.36717 16.2171C10.2776 16.0671 10.7567 16.0958 12.5489 16.0958C8.37717 11.1289 9.44252 3.59608 14.9348 0.000488281C9.97005 0.0605471 5.94946 4.12284 5.94946 9.10731C5.94952 11.98 7.28482 14.5464 9.36717 16.2171Z"  />
            <path d="M15.0372 16.0965H17.4102C18.8786 16.0965 20.1156 16.9834 20.659 18.2125C25.7052 18.3443 29.9614 14.2407 29.9614 9.10741C29.9615 4.087 25.8826 0 20.8643 0C12.3468 0 8.55317 10.6679 15.0372 16.0965ZM19.982 4.44388V3.69535C19.982 3.20771 20.3773 2.812 20.8643 2.812C21.352 2.812 21.7467 3.20771 21.7467 3.69535V4.44382C22.1713 4.44382 22.5476 4.49318 22.9879 4.66759V4.66818C23.4314 4.84365 23.8385 5.11871 24.1738 5.47677C24.5073 5.83247 24.4891 6.39194 24.1332 6.72524C23.7622 7.07171 23.2015 7.02665 22.8861 6.68459C22.6073 6.38718 22.2267 6.21465 21.8408 6.21053H19.8132C19.2596 6.21053 18.8079 6.65853 18.8079 7.21759C18.8079 7.77235 19.2591 8.224 19.8132 8.224H21.9155C23.4431 8.224 24.6861 9.46841 24.6861 10.9978C24.6861 12.3594 23.6869 13.7709 21.7467 13.7709V14.5194C21.7467 15.0075 21.352 15.4027 20.8643 15.4027C20.3773 15.4027 19.982 15.0075 19.982 14.5194V13.7709C19.6376 13.7709 18.8129 13.8254 17.8849 13.1808C17.4843 12.9023 17.3849 12.3522 17.6632 11.9512C17.9408 11.5501 18.4908 11.4506 18.8908 11.7292C19.1212 11.8906 19.4159 12.0015 19.7049 12.0042H21.9161C22.4738 12.0042 22.9214 11.5523 22.9214 10.9978C22.9214 10.4424 22.4702 9.99071 21.9155 9.99071C21.138 9.99071 20.5908 9.99071 19.8132 9.99071C18.2861 9.99071 17.0432 8.74694 17.0432 7.21759C17.0431 5.79812 18.1129 4.44388 19.982 4.44388Z"  />
            <path d="M29.4261 21.998C28.6609 21.232 27.4192 21.2299 26.652 21.998L23.7732 24.8801C23.4579 25.1952 23.0302 25.3731 22.5844 25.3731H15.0901C14.0048 25.3731 13.1254 24.4927 13.1254 23.4067C13.1254 22.319 14.0066 21.4392 15.0901 21.4392H17.3725C18.3551 21.4392 19.1735 20.6646 19.1948 19.6931C19.2182 18.6848 18.4074 17.8634 17.4101 17.8634C11.4183 17.8634 15.1195 17.8628 10.8512 17.8628C8.67418 17.8628 6.60377 18.8323 5.20765 20.5164L4.14418 21.8681C4.08841 21.939 4.00324 21.9804 3.91312 21.9804H0.588235C0.263353 21.9804 0 22.244 0 22.5693V29.4111C0 29.7364 0.263353 30.0001 0.588235 30.0001H23.3137C23.8855 30.0001 24.4331 29.7728 24.8366 29.3688L29.4255 24.7747C30.192 24.008 30.1908 22.766 29.4261 21.998Z"  />
        </g>
        <defs>
            <clipPath id="clip0">
                <rect width="30" height="30"/>
            </clipPath>
        </defs>
    </symbol>

    <symbol id="tabs-icon-4" viewBox="0 0 30 30">
        <g clip-path="url(#clip0)">
            <path d="M29.8551 23.4418C29.835 23.4165 27.8763 20.8969 27.2395 18.8827C27.0883 18.4031 26.8998 17.7278 26.6834 16.9539C25.6483 13.2513 24.7058 10.1009 23.6615 9.05719C22.8691 8.26483 20.5352 7.66487 18.5385 7.27668C18.12 7.19531 17.7329 7.52111 17.7329 7.94759V12.8851C17.7329 13.1265 17.7973 13.3735 17.92 13.5814C18.4657 14.5055 18.9513 15.049 19.2003 15.1528C19.5479 15.2974 19.7118 15.6969 19.5672 16.0446C19.4228 16.3923 19.0231 16.5568 18.6754 16.4116C17.5571 15.946 16.3729 13.8333 15.6369 12.0117C15.5178 11.7163 15.1934 11.1909 14.9171 10.7812C14.0571 9.5589 12.6678 8.16255 11.4081 7.90617C10.7554 7.77302 10.1787 7.93557 9.73841 8.37509C8.09731 10.0162 9.03637 12.809 10.3412 14.7005C11.3856 16.2145 12.1602 18.0035 12.2701 19.1524C12.2881 19.3436 12.2961 19.5248 12.3048 19.7032C12.3507 20.6883 12.3979 21.7067 13.7614 23.5809C14.494 24.588 15.4492 25.1668 16.4603 25.7802C17.8472 26.6216 19.2818 27.4913 20.5347 29.646C20.6556 29.854 20.8823 29.9999 21.1229 30.0002C27.6208 30.0065 29.9318 24.1651 29.9544 24.1058C30.0409 23.8841 30.003 23.6303 29.8551 23.4418Z"  />
            <path d="M2.43831 0.125619C2.25793 -0.00279778 2.02622 -0.0350776 1.81713 0.0395176C0.730484 0.429688 0 1.47038 0 2.62881V21.9166C0 23.0751 0.73042 24.1157 1.81707 24.5059C2.02615 24.5806 2.25786 24.5483 2.43825 24.4198C2.6194 24.2906 2.72723 24.0807 2.72723 23.8567V0.688694C2.7273 0.464781 2.61946 0.254866 2.43831 0.125619Z"  />
            <path d="M10.9485 19.7695C10.9405 19.5897 10.9332 19.4405 10.9179 19.2835C10.8592 18.6562 10.3591 17.1234 9.22526 15.4801C8.70923 14.7324 7.51008 12.7642 7.51008 10.6448C7.51008 9.36506 7.94947 8.24913 8.78108 7.41753C9.53751 6.66116 10.5962 6.35408 11.6861 6.57582C12.7157 6.78631 13.8582 7.52325 14.9297 8.65311L14.9298 8.64729C14.9403 8.65854 14.9494 8.67094 14.9598 8.68213C14.9698 8.69268 14.9802 8.70054 14.9901 8.71115V8.71722C15.5285 9.30312 16.0006 9.94232 16.3637 10.5221V6.91013V6.81821V2.7273C16.3637 1.22318 15.1406 0 13.6365 0H6.13637C5.75955 0 5.45459 0.304965 5.45459 0.68184V23.8638C5.45459 24.2407 5.75955 24.5456 6.13637 24.5456H11.5004C11.7468 24.5456 11.9739 24.4124 12.095 24.198C12.2142 23.983 12.2102 23.7193 12.0831 23.5089C11.1235 21.9335 10.9991 20.8415 10.9485 19.7695Z"  />
        </g>
        <defs>
            <clipPath id="clip0">
                <rect width="30" height="30"/>
            </clipPath>
        </defs>
    </symbol>

    <symbol id="tabs-icon-5" viewBox="0 0 30 30">
        <g clip-path="url(#clip0)">
            <path d="M16.7222 5.34131H6.49539C5.7422 5.34131 5.13135 5.95216 5.13135 6.70471C5.13135 7.45727 5.7422 8.06812 6.49539 8.06812H16.7222C17.4767 8.06812 18.0862 7.45727 18.0862 6.70471C18.0856 5.95216 17.476 5.34131 16.7222 5.34131Z"  />
            <path d="M18.0856 11.818C18.0856 11.0648 17.476 10.4546 16.7216 10.4546H6.49539C5.7422 10.4546 5.13135 11.0654 5.13135 11.818C5.13135 12.5712 5.7422 13.182 6.49539 13.182H16.7222C17.476 13.182 18.0856 12.5712 18.0856 11.818Z"  />
            <path d="M11.6094 18.2953C12.3626 18.2953 12.9728 17.6845 12.9728 16.9319C12.9728 16.1787 12.3626 15.5679 11.6094 15.5679H6.49539C5.7422 15.5679 5.13135 16.1787 5.13135 16.9319C5.13135 17.6851 5.7422 18.2953 6.49539 18.2953H11.6094Z"  />
            <path d="M21.9025 22.934L20.4721 23.8781V27.2726H2.74527V2.72745H20.4721V8.11596L23.1995 3.39192V1.3634C23.1995 0.610213 22.5887 0 21.8355 0H1.38123C0.628035 0 0.0178223 0.610851 0.0178223 1.3634V28.6372C0.0178223 29.3904 0.628035 30.0006 1.38123 30.0006H21.8355C22.5893 30.0006 23.2002 29.3898 23.2002 28.6372V21.1213L22.5485 22.2485C22.3895 22.5236 22.1661 22.7604 21.9025 22.934Z"  />
            <path d="M29.9661 6.3154C29.938 6.19285 29.6501 5.09115 27.9152 4.08902C26.1803 3.08753 25.0824 3.38881 24.9612 3.42647C24.7984 3.47817 24.6612 3.58796 24.5756 3.73604L16.0531 18.4973C16.0001 18.5899 15.9688 18.6926 15.9624 18.7986L15.6433 24.1252C15.628 24.3831 15.7595 24.6269 15.9822 24.7565C16.2069 24.8854 16.4833 24.8765 16.699 24.7354L21.1524 21.7954C21.2412 21.738 21.3146 21.6594 21.3676 21.5682L29.8907 6.80434C29.9763 6.65626 30.0024 6.48264 29.9661 6.3154ZM18.4173 22.3756C18.1907 22.1924 17.9335 22.0194 17.6571 21.8592C17.3795 21.699 17.1012 21.5643 16.8293 21.4584L16.9244 19.8614C17.2799 19.908 17.8071 20.0522 18.4767 20.4377C19.1456 20.8239 19.5331 21.2094 19.7527 21.4935L18.4173 22.3756Z"  />
            <path d="M9.52461 24.5961C9.56929 24.8699 9.88524 24.9548 10.0965 25.0429C10.3008 25.1291 10.5446 24.9657 10.7144 24.8833C11.7548 24.3772 13.1642 24.972 14.2786 24.972C14.938 24.972 14.938 23.9495 14.2786 23.9495C12.9791 23.9495 11.8978 23.6208 10.6097 23.8333C10.6097 23.7586 10.5823 23.6578 10.5018 23.5206C10.2612 23.1089 9.95482 22.992 9.6478 23.0418C9.62737 22.9933 9.60758 22.9448 9.57886 22.8957C9.49844 22.7642 9.3861 22.6984 9.25971 22.671C9.61907 22.0429 9.85078 21.3784 9.61524 20.841C9.54312 20.6776 9.33822 20.594 9.17354 20.5876C8.49056 20.562 7.90461 21.2789 7.46546 21.7091C6.36695 22.7859 5.39929 24.0082 4.4629 25.2248C4.06078 25.7476 4.94992 26.2557 5.34567 25.7418C6.17546 24.6644 7.05439 23.6182 8.00035 22.6397C7.77248 23.0137 7.53056 23.3808 7.27588 23.7344C6.91205 24.2967 7.78078 24.7754 8.15865 24.2508C8.24865 24.1135 8.3629 24.0146 8.48801 23.9297C8.46312 23.9929 8.43758 24.0548 8.41205 24.1186C8.41333 24.1186 8.41461 24.1193 8.41588 24.1199C8.3961 24.1608 8.37631 24.2016 8.36035 24.2406C8.13184 24.8131 8.98524 25.0754 9.29546 24.6337C9.37397 24.5227 9.44673 24.404 9.51248 24.2795C9.50801 24.365 9.5061 24.4799 9.52461 24.5961Z"  />
        </g>
        <defs>
            <clipPath id="clip0">
                <rect width="30" height="30"/>
            </clipPath>
        </defs>
    </symbol>

    <symbol id="tabs-icon-6" viewBox="0 0 30 30">
        <g clip-path="url(#clip0)">
            <path d="M5 8.4375C5 5.16375 7.66375 2.5 10.9375 2.5H22.3538C21.9425 1.06125 20.6313 0 19.0625 0H4.6875C2.79125 0 1.25 1.54125 1.25 3.4375V22.8125C1.25 24.7087 2.79125 26.25 4.6875 26.25H5V8.4375Z" />
            <path d="M25.3125 5H10.9375C9.04125 5 7.5 6.54125 7.5 8.4375V26.5625C7.5 28.4587 9.04125 30 10.9375 30H25.3125C27.2088 30 28.75 28.4587 28.75 26.5625V8.4375C28.75 6.54125 27.2088 5 25.3125 5ZM22.8125 26.25H13.4375C12.92 26.25 12.5 25.83 12.5 25.3125C12.5 24.795 12.92 24.375 13.4375 24.375H22.8125C23.33 24.375 23.75 24.795 23.75 25.3125C23.75 25.83 23.33 26.25 22.8125 26.25ZM22.8125 21.25H13.4375C12.92 21.25 12.5 20.83 12.5 20.3125C12.5 19.795 12.92 19.375 13.4375 19.375H22.8125C23.33 19.375 23.75 19.795 23.75 20.3125C23.75 20.83 23.33 21.25 22.8125 21.25ZM22.8125 16.875H13.4375C12.92 16.875 12.5 16.455 12.5 15.9375C12.5 15.42 12.92 15 13.4375 15H22.8125C23.33 15 23.75 15.42 23.75 15.9375C23.75 16.455 23.33 16.875 22.8125 16.875ZM22.8125 11.875H13.4375C12.92 11.875 12.5 11.455 12.5 10.9375C12.5 10.42 12.92 10 13.4375 10H22.8125C23.33 10 23.75 10.42 23.75 10.9375C23.75 11.455 23.33 11.875 22.8125 11.875Z" />
        </g>
        <defs>
            <clipPath id="clip0">
                <rect width="30" height="30"/>
            </clipPath>
        </defs>
    </symbol>

    <symbol id="tabs-icon-7" viewBox="0 0 30 30">
        <path d="M27.3633 1.81641H6.15231C5.00798 1.81641 4.04153 2.5534 3.67749 3.57422H29.8381C29.474 2.5534 28.5076 1.81641 27.3633 1.81641Z"  />
        <path d="M3.51562 5.33203V7.08984H23.8477C26.2707 7.08984 28.2422 9.06135 28.2422 11.4844V20.9904C29.263 20.6264 30 19.66 30 18.5156V5.33203H3.51562Z"  />
        <path d="M23.8477 8.84766H2.63672C1.18277 8.84766 0 10.0304 0 11.4844V12.3633H26.4844V11.4844C26.4844 10.0304 25.3016 8.84766 23.8477 8.84766Z"  />
        <path d="M6.15234 21.1523C5.66742 21.1523 5.27344 21.5463 5.27344 22.0312C5.27344 22.5162 5.66742 22.9102 6.15234 22.9102C6.63727 22.9102 7.03125 22.5162 7.03125 22.0312C7.03125 21.5463 6.63727 21.1523 6.15234 21.1523Z"  />
        <path d="M9.66797 21.1523C9.18305 21.1523 8.78906 21.5463 8.78906 22.0312C8.78906 22.5162 9.18305 22.9102 9.66797 22.9102C10.1529 22.9102 10.5469 22.5162 10.5469 22.0312C10.5469 21.5463 10.1529 21.1523 9.66797 21.1523Z"  />
        <path d="M0 15.8789V25.5469C0 27.0008 1.18277 28.1836 2.63672 28.1836H23.8477C25.3016 28.1836 26.4844 27.0008 26.4844 25.5469V15.8789H0ZM9.66797 24.668C8.99021 24.668 8.37773 24.4038 7.91016 23.9822C7.44258 24.4038 6.8301 24.668 6.15234 24.668C4.6984 24.668 3.51562 23.4852 3.51562 22.0312C3.51562 20.5773 4.6984 19.3945 6.15234 19.3945C6.8301 19.3945 7.44258 19.6587 7.91016 20.0803C8.37773 19.6587 8.99021 19.3945 9.66797 19.3945C11.1219 19.3945 12.3047 20.5773 12.3047 22.0312C12.3047 23.4852 11.1219 24.668 9.66797 24.668ZM22.0898 24.668H14.9414C14.4556 24.668 14.0625 24.2749 14.0625 23.7891C14.0625 23.3033 14.4556 22.9102 14.9414 22.9102H22.0898C22.5756 22.9102 22.9688 23.3033 22.9688 23.7891C22.9688 24.2749 22.5756 24.668 22.0898 24.668ZM22.0898 21.1523H14.9414C14.4556 21.1523 14.0625 20.7592 14.0625 20.2734C14.0625 19.7876 14.4556 19.3945 14.9414 19.3945H22.0898C22.5756 19.3945 22.9688 19.7876 22.9688 20.2734C22.9688 20.7592 22.5756 21.1523 22.0898 21.1523Z"  />
    </symbol>

    <symbol id="tabs-icon-8" viewBox="0 0 30 30">
        <path d="M5.68465 20H0.631641C0.28248 20 0 20.2796 0 20.625C0 20.9705 0.28248 21.25 0.631641 21.25H5.68465C6.03375 21.25 6.31629 20.9705 6.31629 20.625C6.31629 20.2796 6.03381 20 5.68465 20Z" />
        <path d="M6.31629 16.25H0.631641C0.28248 16.25 0 16.5296 0 16.875C0 17.2205 0.28248 17.5 0.631641 17.5H6.31629C6.66539 17.5 6.94793 17.2205 6.94793 16.875C6.94793 16.5296 6.66539 16.25 6.31629 16.25Z" />
        <path d="M6.94793 12.5H0.631641C0.28248 12.5 0 12.7796 0 13.125C0 13.4705 0.28248 13.75 0.631641 13.75H6.94793C7.29703 13.75 7.57957 13.4705 7.57957 13.125C7.57957 12.7796 7.29703 12.5 6.94793 12.5Z" />
        <path d="M11.8035 10.0903C14.3165 12.5311 17.1655 15.2984 18.0168 16.0913C18.1346 16.2006 18.2938 16.2573 18.4541 16.2573C18.5294 16.2573 18.6047 16.2451 18.6762 16.2195C18.7311 16.1999 18.8779 16.148 19.0506 16.0308C20.1603 15.2783 23.7823 12.9064 27.1687 10.689L29.5311 9.1418C29.689 9.03803 29.792 8.86898 29.8105 8.68219C29.8291 8.49539 29.7624 8.31047 29.628 8.1774C29.1843 7.74047 28.5959 7.5 27.9705 7.5H12.2754C11.7122 7.5 11.1565 7.69289 10.7093 8.04258C10.5674 8.15426 10.4804 8.32031 10.4706 8.49973C10.4613 8.6792 10.5298 8.85375 10.6593 8.97885L11.8035 10.0903Z" />
        <path d="M29.7236 10.9808C29.5115 10.8386 29.2338 10.8361 29.0205 10.9759L27.6085 11.9006C24.3048 14.0637 20.8444 16.3299 19.7643 17.0617C18.8922 17.6555 17.8207 17.6257 17.1508 17.0006C16.2904 16.1998 13.4363 13.4276 10.8851 10.9496L10.5532 10.6273C10.3885 10.4668 10.1498 10.4082 9.92779 10.4748C9.70695 10.5407 9.53979 10.7207 9.49232 10.9441L7.63016 19.6971C7.59688 19.8546 7.57959 20.0158 7.57959 20.1769C7.57959 21.458 8.63252 22.4999 9.92721 22.4999H25.6223C26.8097 22.4999 27.8496 21.6655 28.0951 20.515L29.9863 11.6265C30.0395 11.3787 29.9352 11.1236 29.7236 10.9808Z" />
        <path d="M0.631641 10H7.57957C7.92867 10 8.21121 9.72049 8.21121 9.37502C8.21121 9.02955 7.92873 8.75 7.57957 8.75H0.631641C0.28248 8.75 0 9.02955 0 9.37502C0 9.72049 0.28248 10 0.631641 10Z" />
    </symbol>

    <symbol id="tabs-icon-9" viewBox="0 0 30 30">
        <g clip-path="url(#clip0)">
            <path d="M27.7385 11.5616L25.6345 4.54834C25.1548 2.94891 23.711 1.875 22.042 1.875H7.95751C6.28851 1.875 4.84472 2.94891 4.36498 4.54834L2.26099 11.5616C0.932442 12.139 -0.000244141 13.4611 -0.000244141 15V22.5C-0.000244141 23.5355 0.839294 24.375 1.87475 24.375H1.87487L1.87475 26.2499C1.87475 27.2855 2.71418 28.125 3.74975 28.125H5.62487C6.66033 28.125 7.49986 27.2855 7.49986 26.25L7.49906 24.375H22.4997L22.4996 26.2499C22.4996 27.2855 23.3391 28.125 24.3746 28.125H26.2497C27.2853 28.125 28.1247 27.2855 28.1247 26.25V24.3751L28.1241 24.375H28.1247C29.1602 24.375 29.9997 23.5355 29.9997 22.5V15C29.9997 13.4611 29.0671 12.139 27.7385 11.5616L27.7385 11.5616ZM7.95746 5.625H22.0419L23.7295 11.25H6.26991L7.95745 5.625H7.95746ZM7.49969 19.6875C6.46412 19.6875 5.62469 18.848 5.62469 17.8125C5.62469 16.7769 6.46412 15.9375 7.49969 15.9375C8.53527 15.9375 9.37469 16.7769 9.37469 17.8125C9.37469 18.848 8.53527 19.6875 7.49969 19.6875ZM22.4997 19.6875C21.4641 19.6875 20.6247 18.848 20.6247 17.8125C20.6247 16.7769 21.4641 15.9375 22.4997 15.9375C23.5353 15.9375 24.3747 16.7769 24.3747 17.8125C24.3747 18.848 23.5353 19.6875 22.4997 19.6875Z" />
        </g>
        <defs>
            <clipPath id="clip0">
                <rect width="30" height="30"/>
            </clipPath>
        </defs>
    </symbol>

    <symbol id="tabs-icon-10" viewBox="0 0 30 30">
        <g clip-path="url(#clip0)">
            <path d="M28.0052 15.3887C27.8845 15.1417 27.8845 14.8585 28.0052 14.6115L29.1241 12.3226C29.747 11.0481 29.2534 9.5291 28.0004 8.86424L25.7498 7.6701C25.507 7.54132 25.3405 7.3121 25.293 7.04146L24.8528 4.53196C24.6077 3.13474 23.3153 2.19584 21.911 2.39453L19.3884 2.75136C19.1161 2.7898 18.8468 2.70226 18.6493 2.51119L16.8182 0.739793C15.7986 -0.246568 14.2014 -0.246627 13.1818 0.739793L11.3507 2.51136C11.1531 2.7025 10.8839 2.78986 10.6116 2.75154L8.08902 2.39471C6.68425 2.1959 5.39226 3.13492 5.14716 4.53213L4.70701 7.04151C4.65949 7.31222 4.49303 7.54137 4.25027 7.67022L1.9997 8.86436C0.746621 9.52916 0.25303 11.0483 0.875995 12.3228L1.99484 14.6117C2.11554 14.8586 2.11554 15.1419 1.99484 15.3888L0.875936 17.6777C0.252971 18.9521 0.746562 20.4712 1.99964 21.136L4.25022 22.3302C4.49303 22.459 4.65949 22.6882 4.70701 22.9588L5.14716 25.4683C5.37029 26.7403 6.46095 27.6323 7.71443 27.6322C7.83789 27.6322 7.96316 27.6235 8.08908 27.6057L10.6117 27.2489C10.8838 27.2102 11.1532 27.298 11.3507 27.489L13.1818 29.2604C13.6917 29.7537 14.3457 30.0002 15 30.0002C15.6541 30.0001 16.3085 29.7535 16.8182 29.2604L18.6493 27.489C18.8469 27.298 19.1162 27.2107 19.3884 27.2489L21.911 27.6057C23.3159 27.8044 24.6077 26.8655 24.8528 25.4683L25.293 22.9589C25.3406 22.6882 25.507 22.459 25.7498 22.3302L28.0004 21.136C29.2534 20.4712 29.747 18.9521 29.1241 17.6776L28.0052 15.3887ZM11.5394 7.2139C13.2885 7.2139 14.7116 8.63695 14.7116 10.3861C14.7116 12.1352 13.2885 13.5583 11.5394 13.5583C9.79028 13.5583 8.36722 12.1352 8.36722 10.3861C8.36722 8.63695 9.79028 7.2139 11.5394 7.2139ZM9.90208 21.3214C9.73315 21.4904 9.51173 21.5748 9.29036 21.5748C9.069 21.5748 8.84752 21.4904 8.67865 21.3214C8.3408 20.9836 8.3408 20.4358 8.67865 20.0979L20.0979 8.67873C20.4357 8.34088 20.9835 8.34088 21.3214 8.67873C21.6592 9.01658 21.6592 9.56437 21.3214 9.90222L9.90208 21.3214ZM18.4605 22.7864C16.7113 22.7864 15.2883 21.3633 15.2883 19.6142C15.2883 17.8651 16.7113 16.442 18.4605 16.442C20.2096 16.442 21.6327 17.8651 21.6327 19.6142C21.6327 21.3633 20.2096 22.7864 18.4605 22.7864Z" />
            <path d="M18.4605 18.1724C17.6654 18.1724 17.0186 18.8192 17.0186 19.6142C17.0186 20.4093 17.6654 21.0561 18.4605 21.0561C19.2555 21.0561 19.9023 20.4093 19.9023 19.6142C19.9023 18.8192 19.2555 18.1724 18.4605 18.1724Z" />
            <path d="M11.5395 8.94385C10.7445 8.94385 10.0977 9.59066 10.0977 10.3857C10.0977 11.1808 10.7445 11.8276 11.5395 11.8276C12.3346 11.8276 12.9814 11.1808 12.9814 10.3857C12.9814 9.59072 12.3346 8.94385 11.5395 8.94385Z" />
        </g>
        <defs>
            <clipPath id="clip0">
                <rect width="30" height="30"/>
            </clipPath>
        </defs>
    </symbol>

    <symbol id="tabs-icon-11" viewBox="0 0 30 30">
        <path d="M8.14376 5.33203H14.7076C15.6476 3.22535 17.3005 1.52186 17.3143 1.49414C17.578 1.24805 17.6483 0.878906 17.5077 0.544922C17.3671 0.210938 17.0507 0 16.6991 0C15.1171 0 14.2558 0.5625 13.5702 1.01953C12.955 1.44141 12.4804 1.75781 11.4257 1.75781C10.371 1.75781 9.89641 1.44141 9.28118 1.01953C8.59563 0.5625 7.73431 0 6.15228 0C5.80071 0 5.48431 0.210938 5.34368 0.544922C5.20306 0.878906 5.27337 1.24805 5.53704 1.49414C5.55093 1.52186 7.2038 3.22535 8.14376 5.33203Z" />
        <path d="M17.6367 27.3633V29.1211C17.6367 29.6065 18.0302 30 18.5156 30H29.1211C29.6065 30 30 29.6065 30 29.1211V27.3633C30 26.8779 29.6065 26.4844 29.1211 26.4844H18.5156C18.0302 26.4844 17.6367 26.8779 17.6367 27.3633Z" />
        <path d="M30 23.8477V22.0898C30 21.6045 29.6065 21.2109 29.1211 21.2109H18.5156C18.0302 21.2109 17.6367 21.6045 17.6367 22.0898V23.8477C17.6367 24.333 18.0302 24.7266 18.5156 24.7266H29.1211C29.6065 24.7266 30 24.333 30 23.8477Z" />
        <path d="M17.5254 14.2148C15.8027 12.5273 14.3965 11.0977 14.1152 8.84766H14.9414C15.4336 8.84766 15.8203 8.46094 15.8203 7.96875C15.8203 7.47656 15.4336 7.08984 14.9414 7.08984H7.91016C7.41797 7.08984 7.03125 7.47656 7.03125 7.96875C7.03125 8.46094 7.41797 8.84766 7.91016 8.84766H8.73633C8.45508 11.0977 7.04883 12.5273 5.32617 14.2148C2.83008 16.6582 0 19.4355 0 25.7812C0.0351562 28.1016 2.02148 30 4.39453 30H15.982C15.8836 29.724 15.8203 29.4305 15.8203 29.1211V22.0898C15.8203 20.6361 17.0033 19.4531 18.457 19.4531H21.6053C20.5418 17.1738 18.9645 15.627 17.5254 14.2148ZM11.4258 19.4531C12.8797 19.4531 14.0625 20.6359 14.0625 22.0898C14.0625 23.2342 13.3255 24.2006 12.3047 24.5647V25.6055C12.3047 26.0913 11.9116 26.4844 11.4258 26.4844C10.94 26.4844 10.5469 26.0913 10.5469 25.6055V24.5647C9.52605 24.2007 8.78906 23.2342 8.78906 22.0898C8.78906 21.604 9.18217 21.2109 9.66797 21.2109C10.1538 21.2109 10.5469 21.604 10.5469 22.0898C10.5469 22.5748 10.9409 22.9688 11.4258 22.9688C11.9107 22.9688 12.3047 22.5748 12.3047 22.0898C12.3047 21.6049 11.9107 21.2109 11.4258 21.2109C9.97184 21.2109 8.78906 20.0282 8.78906 18.5742C8.78906 17.4299 9.52605 16.4634 10.5469 16.0994V15.0586C10.5469 14.5728 10.94 14.1797 11.4258 14.1797C11.9116 14.1797 12.3047 14.5728 12.3047 15.0586V16.0994C13.3255 16.4634 14.0625 17.4299 14.0625 18.5742C14.0625 19.06 13.6694 19.4531 13.1836 19.4531C12.6978 19.4531 12.3047 19.06 12.3047 18.5742C12.3047 18.0893 11.9107 17.6953 11.4258 17.6953C10.9409 17.6953 10.5469 18.0893 10.5469 18.5742C10.5469 19.0591 10.9409 19.4531 11.4258 19.4531Z" />
    </symbol>

    <symbol id="tabs-icon-12" viewBox="0 0 30 30">
        <path d="M14.5584 20.5979L11.2539 21.8516C10.2995 22.2137 9.37628 21.2558 9.77345 20.3154L10.6691 18.1947C10.848 17.771 10.7598 17.2816 10.4442 16.9471L8.32124 14.6966C7.71159 14.0503 8.02477 12.9867 8.88729 12.7739L11.947 12.0189C12.2921 11.9337 12.5792 11.6951 12.7259 11.3713L13.9132 8.75117C14.3249 7.84271 15.6152 7.84271 16.0269 8.75117L17.2143 11.3713C17.361 11.695 17.648 11.9337 17.9931 12.0189L21.0528 12.7739C21.9154 12.9867 22.2285 14.0503 21.6189 14.6966L19.4959 16.9471C19.1803 17.2816 19.0921 17.771 19.2711 18.1947L20.1667 20.3154C20.5638 21.2558 19.6406 22.2137 18.6863 21.8516L15.3817 20.5979C15.1164 20.4973 14.8236 20.4973 14.5584 20.5979Z" />
        <path d="M13.9996 19.1803C14.1785 18.7566 14.0903 18.2672 13.7747 17.9327L11.6517 15.6822C11.0421 15.036 11.3553 13.9724 12.2178 13.7595L15.2775 13.0046C15.6226 12.9194 15.9096 12.6808 16.0563 12.357L16.8587 10.5866L16.0269 8.75117C15.6152 7.84271 14.3249 7.84271 13.9132 8.75117L12.7258 11.3713C12.5791 11.695 12.2921 11.9337 11.947 12.0189L8.88726 12.7739C8.02474 12.9867 7.71163 14.0503 8.32121 14.6965L10.4442 16.947C10.7598 17.2815 10.848 17.7709 10.669 18.1946L9.77342 20.3153C9.37631 21.2557 10.2995 22.2136 11.2538 21.8515L13.1801 21.1208L13.9996 19.1803Z" />
        <path d="M3.6669 20.6129L1.81825 21.3142C1.28434 21.5168 0.767915 20.9809 0.990042 20.4549L1.49103 19.2685C1.59112 19.0315 1.5418 18.7577 1.36526 18.5706L0.177626 17.3116C-0.163403 16.9501 0.0117539 16.3551 0.494295 16.236L2.20595 15.8136C2.39902 15.766 2.55958 15.6325 2.64164 15.4514L3.30592 13.9857C3.53624 13.4774 4.25803 13.4774 4.4883 13.9857L5.15257 15.4514C5.23463 15.6325 5.3952 15.766 5.58826 15.8136L7.29992 16.236C7.78246 16.3551 7.95762 16.9501 7.61659 17.3116L6.42896 18.5706C6.25242 18.7577 6.20309 19.0315 6.30318 19.2685L6.80418 20.4549C7.0263 20.9809 6.50988 21.5168 5.97596 21.3142L4.12732 20.6129C3.97905 20.5566 3.81523 20.5566 3.6669 20.6129Z" />
        <path d="M2.60909 20.9992L3.11008 19.8128C3.21017 19.5758 3.16085 19.3021 2.9843 19.1149L1.79667 17.856C1.45564 17.4944 1.6308 16.8994 2.11334 16.7804L3.825 16.358C4.01806 16.3104 4.17863 16.1769 4.26069 15.9958L4.82999 14.7395L4.4883 13.9856C4.25797 13.4775 3.53618 13.4775 3.30592 13.9856L2.64164 15.4514C2.55958 15.6325 2.39902 15.766 2.20595 15.8136L0.494296 16.236C0.0117539 16.3551 -0.163403 16.9501 0.177626 17.3115L1.36526 18.5705C1.5418 18.7577 1.59112 19.0314 1.49103 19.2684L0.990042 20.4548C0.767915 20.9809 1.28434 21.5168 1.81825 21.3142L2.60245 21.0166C2.60474 21.0108 2.60661 21.005 2.60909 20.9992Z" />
        <path d="M26.3334 20.6129L28.182 21.3142C28.7159 21.5168 29.2323 20.9809 29.0102 20.4549L28.5092 19.2685C28.4091 19.0315 28.4585 18.7577 28.635 18.5706L29.8226 17.3116C30.1637 16.9501 29.9885 16.3551 29.506 16.236L27.7943 15.8136C27.6012 15.766 27.4407 15.6325 27.3586 15.4514L26.6943 13.9857C26.464 13.4774 25.7422 13.4774 25.512 13.9857L24.8477 15.4514C24.7656 15.6325 24.6051 15.766 24.412 15.8136L22.7003 16.236C22.2178 16.3551 22.0427 16.9501 22.3837 17.3116L23.5713 18.5706C23.7479 18.7577 23.7972 19.0315 23.6971 19.2685L23.1961 20.4549C22.974 20.9809 23.4904 21.5168 24.0243 21.3142L25.873 20.6129C26.0212 20.5566 26.185 20.5566 26.3334 20.6129Z" />
        <path d="M28.1184 21.2784C28.0811 21.2642 28.0427 21.2536 28.0039 21.2466L28.182 21.3141C28.2209 21.3289 28.2596 21.3393 28.298 21.3465L28.1184 21.2784Z" />
        <path d="M25.4822 19.9341C25.5823 19.6971 25.533 19.4233 25.3564 19.2362L24.1688 17.9772C23.8277 17.6157 24.0029 17.0207 24.4854 16.9016L26.1971 16.4792C26.3902 16.4316 26.5507 16.2981 26.6328 16.117L27.1465 14.9834L26.6944 13.9856C26.464 13.4775 25.7422 13.4775 25.512 13.9856L24.8477 15.4514C24.7656 15.6325 24.6051 15.766 24.412 15.8136L22.7004 16.236C22.2178 16.3551 22.0427 16.9501 22.3837 17.3116L23.5713 18.5705C23.7479 18.7577 23.7972 19.0314 23.6971 19.2684L23.1961 20.4548C22.974 20.9809 23.4904 21.5168 24.0243 21.3142L25.0663 20.9188L25.4822 19.9341Z" />
    </symbol>

    <symbol id="soc-vk" viewBox="0 0 18 18">
        <path d="M17.8393 13.0253C17.791 12.9443 17.4917 12.294 16.0516 10.9574C14.544 9.55776 14.7465 9.78503 16.5624 7.36498C17.6683 5.89112 18.1105 4.99105 17.9721 4.60627C17.8405 4.23949 17.027 4.33625 17.027 4.33625L14.3223 4.352C14.3223 4.352 14.1221 4.325 13.9724 4.41388C13.8273 4.50164 13.7339 4.70415 13.7339 4.70415C13.7339 4.70415 13.3052 5.84499 12.7337 6.81481C11.5287 8.86134 11.0461 8.96935 10.8492 8.84221C10.3913 8.54631 10.506 7.65187 10.506 7.01733C10.506 5.0338 10.8064 4.20687 9.91987 3.9931C9.6251 3.92222 9.40908 3.87497 8.6564 3.86709C7.69108 3.85697 6.87314 3.87047 6.41073 4.09661C6.10246 4.24737 5.86507 4.58377 6.0102 4.6029C6.18909 4.62652 6.59412 4.71203 6.80901 5.00455C7.08691 5.38145 7.07678 6.22977 7.07678 6.22977C7.07678 6.22977 7.23654 8.56432 6.70438 8.85459C6.33873 9.05373 5.83806 8.64757 4.76361 6.79006C4.21344 5.83936 3.79716 4.78741 3.79716 4.78741C3.79716 4.78741 3.71728 4.59165 3.5744 4.48701C3.40113 4.35988 3.15812 4.31938 3.15812 4.31938L0.586176 4.33513C0.586176 4.33513 0.200272 4.34638 0.0585114 4.51401C-0.067498 4.66365 0.0483856 4.97192 0.0483856 4.97192C0.0483856 4.97192 2.06229 9.68265 4.3417 12.0577C6.43323 14.2347 8.80716 14.0919 8.80716 14.0919H9.88274C9.88274 14.0919 10.2079 14.0558 10.3733 13.877C10.5263 13.7127 10.5207 13.4044 10.5207 13.4044C10.5207 13.4044 10.4993 11.9609 11.1698 11.7483C11.8303 11.539 12.6786 13.1434 13.5775 13.7611C14.2571 14.228 14.7735 14.1256 14.7735 14.1256L17.1778 14.0919C17.1778 14.0919 18.4356 14.0142 17.8393 13.0253Z"/>
    </symbol>

    <symbol id="soc-fb" viewBox="0 0 18 18">
        <path d="M11.1791 4.42036C11.2037 4.39262 11.3189 4.30198 11.7712 4.30198L13.2541 4.30143C13.7365 4.30143 14.1288 3.90977 14.1288 3.42829V0.841555C14.1288 0.360902 13.737 -0.0307617 13.2555 -0.0315857L11.0528 -0.0351562C9.69332 -0.0351562 8.53764 0.4124 7.71067 1.25931C6.88743 2.10238 6.4522 3.27929 6.4522 4.66261V6.05774H4.76718C4.28476 6.05774 3.89233 6.4494 3.89233 6.93088V9.71674C3.89233 10.1982 4.28476 10.5899 4.76718 10.5899H6.4522V17.0917C6.4522 17.5732 6.84463 17.9649 7.32705 17.9649H10.2152C10.6976 17.9649 11.0901 17.5732 11.0901 17.0917V10.59H13.1498C13.6322 10.59 14.0245 10.1982 14.0245 9.71702L14.0256 6.93101C14.0256 6.61474 13.8532 6.3221 13.5755 6.16733C13.4469 6.09564 13.2971 6.05774 13.1428 6.05774H11.0901V4.95553C11.0901 4.59628 11.1385 4.46623 11.1791 4.42036Z"/>
    </symbol>

    <symbol id="soc-ig" viewBox="0 0 18 18">
        <path d="M13.1275 0H4.87243C2.18573 0 0 2.18573 0 4.87243V13.1277C0 15.8142 2.18573 18 4.87243 18H13.1277C15.8142 18 18 15.8142 18 13.1277V4.87243C18 2.18573 15.8142 0 13.1275 0V0ZM8.99998 13.9217C6.28609 13.9217 4.07825 11.7139 4.07825 8.99998C4.07825 6.28609 6.28609 4.07825 8.99998 4.07825C11.7139 4.07825 13.9217 6.28609 13.9217 8.99998C13.9217 11.7139 11.7139 13.9217 8.99998 13.9217ZM14.0394 5.23896C13.2374 5.23896 12.5851 4.58665 12.5851 3.78465C12.5851 2.98265 13.2374 2.3302 14.0394 2.3302C14.8414 2.3302 15.4939 2.98265 15.4939 3.78465C15.4939 4.58665 14.8414 5.23896 14.0394 5.23896Z"/>
        <path d="M14.0395 3.38562C13.8195 3.38562 13.6404 3.5647 13.6404 3.7847C13.6404 4.0047 13.8195 4.18378 14.0395 4.18378C14.2596 4.18378 14.4387 4.00484 14.4387 3.7847C14.4387 3.56456 14.2596 3.38562 14.0395 3.38562Z"/>
    </symbol>

    <symbol id="soc-ok" viewBox="0 0 18 18">
        <path d="M3.54073 9.66081C3.08098 10.5646 3.60298 10.9966 4.79398 11.7346C5.80648 12.3601 7.20523 12.5888 8.10373 12.6803C7.73548 13.0343 9.42298 11.4113 4.56298 16.086C3.53248 17.0738 5.19148 18.6585 6.22123 17.6918L9.00898 15.003C10.0762 16.0298 11.0992 17.0138 11.7967 17.6955C12.8272 18.666 14.4855 17.0948 13.4662 16.0898C13.3897 16.017 9.68848 12.4666 9.91423 12.6841C10.824 12.5926 12.2017 12.3503 13.2022 11.7383L13.2015 11.7376C14.3925 10.9958 14.9145 10.5646 14.4615 9.66081C14.1877 9.14781 13.4497 8.71882 12.4672 9.46056C12.4672 9.46056 11.1405 10.4768 9.00073 10.4768C6.86023 10.4768 5.53423 9.46056 5.53423 9.46056C4.55248 8.71507 3.81148 9.14781 3.54073 9.66081Z"/>
        <path d="M8.99926 9.1065C11.6078 9.1065 13.7378 7.068 13.7378 4.5585C13.7378 2.0385 11.6078 0 8.99926 0C6.39001 0 4.26001 2.0385 4.26001 4.5585C4.26001 7.068 6.39001 9.1065 8.99926 9.1065ZM8.99926 2.30925C10.281 2.30925 11.3265 3.315 11.3265 4.5585C11.3265 5.7915 10.281 6.79725 8.99926 6.79725C7.71751 6.79725 6.67201 5.7915 6.67201 4.5585C6.67126 3.31425 7.71676 2.30925 8.99926 2.30925Z"/>
    </symbol>

    <symbol id="soc-ya" viewBox="0 0 18 18">
        <path d="M12.7791 0H10.2217C7.63063 0 5.01625 1.91329 5.01625 6.18772C5.01625 8.40178 5.95466 10.1262 7.67479 11.1068L4.52637 16.8054C4.37714 17.0749 4.37325 17.3803 4.51596 17.6224C4.65529 17.8588 4.90999 18 5.19726 18H6.78975C7.15155 18 7.4337 17.8251 7.56892 17.5188L10.5209 11.745H10.7363V17.2804C10.7363 17.6705 11.0655 18 11.4551 18H12.8464C13.2833 18 13.5884 17.6949 13.5884 17.2581V0.787612C13.5885 0.323887 13.2557 0 12.7791 0ZM10.7364 9.18022H10.3563C8.88275 9.18022 8.003 7.97737 8.003 5.96261C8.003 3.45741 9.11433 2.56483 10.1544 2.56483H10.7364V9.18022Z"/>
    </symbol>

    <symbol id="soc-yt" viewBox="0 0 18 18">
        <path d="M17.081 4.78227C16.8865 4.05933 16.3165 3.48945 15.5937 3.29479C14.2732 2.93347 8.991 2.93347 8.991 2.93347C8.991 2.93347 3.70902 2.93347 2.3885 3.28109C1.67957 3.47555 1.09568 4.05944 0.901222 4.78227C0.553711 6.10269 0.553711 8.84108 0.553711 8.84108C0.553711 8.84108 0.553711 11.5933 0.901222 12.8999C1.09589 13.6227 1.66566 14.1926 2.3886 14.3873C3.72292 14.7487 8.99121 14.7487 8.99121 14.7487C8.99121 14.7487 14.2732 14.7487 15.5937 14.4011C16.3167 14.2065 16.8865 13.6366 17.0812 12.9138C17.4286 11.5933 17.4286 8.85498 17.4286 8.85498C17.4286 8.85498 17.4425 6.10269 17.081 4.78227ZM7.30927 11.3709V6.31126L11.7017 8.84108L7.30927 11.3709Z"/>
    </symbol>

</svg>