<svg width="30" height="30" viewBox="0 0 30 30" fill="none" xmlns="http://www.w3.org/2000/svg">
<g clip-path="url(#clip0)">
<path d="M9.36717 16.2171C10.2776 16.0671 10.7567 16.0958 12.5489 16.0958C8.37717 11.1289 9.44252 3.59608 14.9348 0.000488281C9.97005 0.0605471 5.94946 4.12284 5.94946 9.10731C5.94952 11.98 7.28482 14.5464 9.36717 16.2171Z" fill="#AFC9C9"/>
<path d="M15.0372 16.0965H17.4102C18.8786 16.0965 20.1156 16.9834 20.659 18.2125C25.7052 18.3443 29.9614 14.2407 29.9614 9.10741C29.9615 4.087 25.8826 0 20.8643 0C12.3468 0 8.55317 10.6679 15.0372 16.0965ZM19.982 4.44388V3.69535C19.982 3.20771 20.3773 2.812 20.8643 2.812C21.352 2.812 21.7467 3.20771 21.7467 3.69535V4.44382C22.1713 4.44382 22.5476 4.49318 22.9879 4.66759V4.66818C23.4314 4.84365 23.8385 5.11871 24.1738 5.47677C24.5073 5.83247 24.4891 6.39194 24.1332 6.72524C23.7622 7.07171 23.2015 7.02665 22.8861 6.68459C22.6073 6.38718 22.2267 6.21465 21.8408 6.21053H19.8132C19.2596 6.21053 18.8079 6.65853 18.8079 7.21759C18.8079 7.77235 19.2591 8.224 19.8132 8.224H21.9155C23.4431 8.224 24.6861 9.46841 24.6861 10.9978C24.6861 12.3594 23.6869 13.7709 21.7467 13.7709V14.5194C21.7467 15.0075 21.352 15.4027 20.8643 15.4027C20.3773 15.4027 19.982 15.0075 19.982 14.5194V13.7709C19.6376 13.7709 18.8129 13.8254 17.8849 13.1808C17.4843 12.9023 17.3849 12.3522 17.6632 11.9512C17.9408 11.5501 18.4908 11.4506 18.8908 11.7292C19.1212 11.8906 19.4159 12.0015 19.7049 12.0042H21.9161C22.4738 12.0042 22.9214 11.5523 22.9214 10.9978C22.9214 10.4424 22.4702 9.99071 21.9155 9.99071C21.138 9.99071 20.5908 9.99071 19.8132 9.99071C18.2861 9.99071 17.0432 8.74694 17.0432 7.21759C17.0431 5.79812 18.1129 4.44388 19.982 4.44388Z" fill="#AFC9C9"/>
<path d="M29.4261 21.998C28.6609 21.232 27.4192 21.2299 26.652 21.998L23.7732 24.8801C23.4579 25.1952 23.0302 25.3731 22.5844 25.3731H15.0901C14.0048 25.3731 13.1254 24.4927 13.1254 23.4067C13.1254 22.319 14.0066 21.4392 15.0901 21.4392H17.3725C18.3551 21.4392 19.1735 20.6646 19.1948 19.6931C19.2182 18.6848 18.4074 17.8634 17.4101 17.8634C11.4183 17.8634 15.1195 17.8628 10.8512 17.8628C8.67418 17.8628 6.60377 18.8323 5.20765 20.5164L4.14418 21.8681C4.08841 21.939 4.00324 21.9804 3.91312 21.9804H0.588235C0.263353 21.9804 0 22.244 0 22.5693V29.4111C0 29.7364 0.263353 30.0001 0.588235 30.0001H23.3137C23.8855 30.0001 24.4331 29.7728 24.8366 29.3688L29.4255 24.7747C30.192 24.008 30.1908 22.766 29.4261 21.998Z" fill="#AFC9C9"/>
</g>
<defs>
<clipPath id="clip0">
<rect width="30" height="30" fill="white"/>
</clipPath>
</defs>
</svg>
