<svg width="30" height="30" viewBox="0 0 30 30" fill="none" xmlns="http://www.w3.org/2000/svg">
<g clip-path="url(#clip0)">
<path d="M29.8551 23.4418C29.835 23.4165 27.8763 20.8969 27.2395 18.8827C27.0883 18.4031 26.8998 17.7278 26.6834 16.9539C25.6483 13.2513 24.7058 10.1009 23.6615 9.05719C22.8691 8.26483 20.5352 7.66487 18.5385 7.27668C18.12 7.19531 17.7329 7.52111 17.7329 7.94759V12.8851C17.7329 13.1265 17.7973 13.3735 17.92 13.5814C18.4657 14.5055 18.9513 15.049 19.2003 15.1528C19.5479 15.2974 19.7118 15.6969 19.5672 16.0446C19.4228 16.3923 19.0231 16.5568 18.6754 16.4116C17.5571 15.946 16.3729 13.8333 15.6369 12.0117C15.5178 11.7163 15.1934 11.1909 14.9171 10.7812C14.0571 9.5589 12.6678 8.16255 11.4081 7.90617C10.7554 7.77302 10.1787 7.93557 9.73841 8.37509C8.09731 10.0162 9.03637 12.809 10.3412 14.7005C11.3856 16.2145 12.1602 18.0035 12.2701 19.1524C12.2881 19.3436 12.2961 19.5248 12.3048 19.7032C12.3507 20.6883 12.3979 21.7067 13.7614 23.5809C14.494 24.588 15.4492 25.1668 16.4603 25.7802C17.8472 26.6216 19.2818 27.4913 20.5347 29.646C20.6556 29.854 20.8823 29.9999 21.1229 30.0002C27.6208 30.0065 29.9318 24.1651 29.9544 24.1058C30.0409 23.8841 30.003 23.6303 29.8551 23.4418Z" fill="#AFC9C9"/>
<path d="M2.43831 0.125619C2.25793 -0.00279778 2.02622 -0.0350776 1.81713 0.0395176C0.730484 0.429688 0 1.47038 0 2.62881V21.9166C0 23.0751 0.73042 24.1157 1.81707 24.5059C2.02615 24.5806 2.25786 24.5483 2.43825 24.4198C2.6194 24.2906 2.72723 24.0807 2.72723 23.8567V0.688694C2.7273 0.464781 2.61946 0.254866 2.43831 0.125619Z" fill="#AFC9C9"/>
<path d="M10.9485 19.7695C10.9405 19.5897 10.9332 19.4405 10.9179 19.2835C10.8592 18.6562 10.3591 17.1234 9.22526 15.4801C8.70923 14.7324 7.51008 12.7642 7.51008 10.6448C7.51008 9.36506 7.94947 8.24913 8.78108 7.41753C9.53751 6.66116 10.5962 6.35408 11.6861 6.57582C12.7157 6.78631 13.8582 7.52325 14.9297 8.65311L14.9298 8.64729C14.9403 8.65854 14.9494 8.67094 14.9598 8.68213C14.9698 8.69268 14.9802 8.70054 14.9901 8.71115V8.71722C15.5285 9.30312 16.0006 9.94232 16.3637 10.5221V6.91013V6.81821V2.7273C16.3637 1.22318 15.1406 0 13.6365 0H6.13637C5.75955 0 5.45459 0.304965 5.45459 0.68184V23.8638C5.45459 24.2407 5.75955 24.5456 6.13637 24.5456H11.5004C11.7468 24.5456 11.9739 24.4124 12.095 24.198C12.2142 23.983 12.2102 23.7193 12.0831 23.5089C11.1235 21.9335 10.9991 20.8415 10.9485 19.7695Z" fill="#AFC9C9"/>
</g>
<defs>
<clipPath id="clip0">
<rect width="30" height="30" fill="white"/>
</clipPath>
</defs>
</svg>
