<svg width="30" height="30" viewBox="0 0 30 30" fill="none" xmlns="http://www.w3.org/2000/svg">
<g clip-path="url(#clip0)">
<path d="M27.7385 11.5616L25.6345 4.54834C25.1548 2.94891 23.711 1.875 22.042 1.875H7.95751C6.28851 1.875 4.84472 2.94891 4.36498 4.54834L2.26099 11.5616C0.932442 12.139 -0.000244141 13.4611 -0.000244141 15V22.5C-0.000244141 23.5355 0.839294 24.375 1.87475 24.375H1.87487L1.87475 26.2499C1.87475 27.2855 2.71418 28.125 3.74975 28.125H5.62487C6.66033 28.125 7.49986 27.2855 7.49986 26.25L7.49906 24.375H22.4997L22.4996 26.2499C22.4996 27.2855 23.3391 28.125 24.3746 28.125H26.2497C27.2853 28.125 28.1247 27.2855 28.1247 26.25V24.3751L28.1241 24.375H28.1247C29.1602 24.375 29.9997 23.5355 29.9997 22.5V15C29.9997 13.4611 29.0671 12.139 27.7385 11.5616L27.7385 11.5616ZM7.95746 5.625H22.0419L23.7295 11.25H6.26991L7.95745 5.625H7.95746ZM7.49969 19.6875C6.46412 19.6875 5.62469 18.848 5.62469 17.8125C5.62469 16.7769 6.46412 15.9375 7.49969 15.9375C8.53527 15.9375 9.37469 16.7769 9.37469 17.8125C9.37469 18.848 8.53527 19.6875 7.49969 19.6875ZM22.4997 19.6875C21.4641 19.6875 20.6247 18.848 20.6247 17.8125C20.6247 16.7769 21.4641 15.9375 22.4997 15.9375C23.5353 15.9375 24.3747 16.7769 24.3747 17.8125C24.3747 18.848 23.5353 19.6875 22.4997 19.6875Z" fill="#AFC9C9"/>
</g>
<defs>
<clipPath id="clip0">
<rect width="30" height="30" fill="white"/>
</clipPath>
</defs>
</svg>
