<svg width="30" height="30" viewBox="0 0 30 30" fill="none" xmlns="http://www.w3.org/2000/svg">
<g clip-path="url(#clip0)">
<path d="M5 8.4375C5 5.16375 7.66375 2.5 10.9375 2.5H22.3538C21.9425 1.06125 20.6313 0 19.0625 0H4.6875C2.79125 0 1.25 1.54125 1.25 3.4375V22.8125C1.25 24.7087 2.79125 26.25 4.6875 26.25H5V8.4375Z" fill="#AFC9C9"/>
<path d="M25.3125 5H10.9375C9.04125 5 7.5 6.54125 7.5 8.4375V26.5625C7.5 28.4587 9.04125 30 10.9375 30H25.3125C27.2088 30 28.75 28.4587 28.75 26.5625V8.4375C28.75 6.54125 27.2088 5 25.3125 5ZM22.8125 26.25H13.4375C12.92 26.25 12.5 25.83 12.5 25.3125C12.5 24.795 12.92 24.375 13.4375 24.375H22.8125C23.33 24.375 23.75 24.795 23.75 25.3125C23.75 25.83 23.33 26.25 22.8125 26.25ZM22.8125 21.25H13.4375C12.92 21.25 12.5 20.83 12.5 20.3125C12.5 19.795 12.92 19.375 13.4375 19.375H22.8125C23.33 19.375 23.75 19.795 23.75 20.3125C23.75 20.83 23.33 21.25 22.8125 21.25ZM22.8125 16.875H13.4375C12.92 16.875 12.5 16.455 12.5 15.9375C12.5 15.42 12.92 15 13.4375 15H22.8125C23.33 15 23.75 15.42 23.75 15.9375C23.75 16.455 23.33 16.875 22.8125 16.875ZM22.8125 11.875H13.4375C12.92 11.875 12.5 11.455 12.5 10.9375C12.5 10.42 12.92 10 13.4375 10H22.8125C23.33 10 23.75 10.42 23.75 10.9375C23.75 11.455 23.33 11.875 22.8125 11.875Z" fill="#AFC9C9"/>
</g>
<defs>
<clipPath id="clip0">
<rect width="30" height="30" fill="white"/>
</clipPath>
</defs>
</svg>
