<svg width="30" height="30" viewBox="0 0 30 30" fill="none" xmlns="http://www.w3.org/2000/svg">
<g clip-path="url(#clip0)">
<path d="M28.8137 19.5687C28.5611 19.8748 28.2627 20.1504 27.9336 20.3723V23.8009H28.3622C29.2652 23.8009 29.9923 23.0738 29.9999 22.1784V18.0381L28.8137 19.5687Z" fill="#AFC9C9"/>
<path d="M21.5816 12.2446H25.9974C26.1276 12.2446 26.2653 12.2293 26.4031 12.1987V7.82118C26.4031 6.91812 25.6684 6.19873 24.773 6.19873H1.63775C0.734694 6.19873 0.00765306 6.92577 0 7.82118V25.3696C0.00765306 26.2727 0.734694 27.0074 1.63775 27.0151H24.773C25.676 27.0074 26.4031 26.2727 26.4031 25.3696L26.3954 20.9232C26.2653 20.9385 26.1276 20.9538 25.9898 20.9615H21.5816C19.1786 20.9538 17.227 19.0023 17.227 16.5992C17.227 14.1962 19.1786 12.2446 21.5816 12.2446Z" fill="#AFC9C9"/>
<path d="M28.3622 2.98486H5.22703C4.32396 2.99252 3.59692 3.72721 3.59692 4.63027V4.66854H24.7729C26.5178 4.66854 27.9337 6.0767 27.9337 7.8216V11.0206L30 8.35731V4.63027C29.9923 3.72721 29.2653 2.99252 28.3622 2.98486Z" fill="#AFC9C9"/>
<path d="M29.9923 10.8599L28.806 12.3905C28.4616 12.8344 28.0178 13.1941 27.5127 13.4313C27.0382 13.6609 26.5178 13.7757 25.9897 13.7757H21.5815C20.0203 13.7833 18.7576 15.0461 18.7576 16.6073C18.7576 18.1686 20.0203 19.4313 21.5815 19.439H25.9974C26.6249 19.4313 27.2219 19.1405 27.6045 18.643L29.9999 15.5359L29.9923 10.8599ZM23.2958 17.3726H21.4591C21.0382 17.3726 20.6938 17.0282 20.6938 16.6073C20.6938 16.1864 21.0382 15.842 21.4591 15.842H23.2958C23.7168 15.842 24.0611 16.1864 24.0611 16.6073C24.0611 17.0282 23.7168 17.3726 23.2958 17.3726Z" fill="#AFC9C9"/>
</g>
<defs>
<clipPath id="clip0">
<rect width="30" height="30" fill="white"/>
</clipPath>
</defs>
</svg>
